<?xml version="1.0" encoding="utf-8"?>
<!-- Generator: Adobe Illustrator 25.2.0, SVG Export Plug-In . SVG Version: 6.00 Build 0)  -->
<svg version="1.1" id="Layer_1" xmlns="http://www.w3.org/2000/svg" xmlns:xlink="http://www.w3.org/1999/xlink" x="0px" y="0px"
	 viewBox="0 0 180 180" style="enable-background:new 0 0 180 180;" xml:space="preserve">
<style type="text/css">
	.st0{fill:#FFFFFF;}
	.st1{fill:#020000;}
</style>
<rect class="st0" width="180" height="180"/>
<g>
	<g>
		<g>
			<g>
				<path class="st1" d="M52.2,64.2l8.8,5.2c-4.2,7.2-11.4,12-19.4,12.8V41h12.8v-5H41.6V25.4c3.6-1,6.4-3.8,7.2-7.4
					c1.4-5.6-1.8-11.2-7.2-12.6s-11,1.8-12.4,7.4S31,24,36.4,25.4V36H23.8v5.2h12.6v41.2C28.2,81.6,21,76.8,17,69.6l8.8-5.2L5,58.6
					l7.4,12.8c2.8,5,6.8,9.2,12,12c14.8,8.2,33.2,2.8,41.4-12l7.4-12.8L52.2,64.2z M34,15.4c0-2.8,2.2-5.2,5-5.2s5,2.4,5,5.2
					s-2.2,5.2-5,5.2S34,18.2,34,15.4z"/>
				<ellipse class="st1" cx="39" cy="144.2" rx="5" ry="5.2"/>
			</g>
			<path class="st1" d="M138,128.6h-12.8v-5.2H138v-10.6c-5.4-1.4-8.8-7-7.4-12.6c1.4-5.6,7-8.8,12.4-7.4s8.8,7,7.4,12.6
				c-1,3.6-3.8,6.4-7.4,7.4v10.6h13v5.2h-12.8v41c8.2-0.8,15.6-5.6,19.6-12.8l-8.8-5l21-5.6l-7.4,12.8c-8.2,15-27,20.4-41.8,12.2
				c-5-2.8-9.2-7-12.2-12.2l-7.4-12.8l21,5.6l-8.8,5.2c4.2,7.2,11.4,12,19.6,12.8V128.6z M140.6,41c-2.8,0-5.2-2.4-5.2-5.2
				s2.2-5.2,5.2-5.2c2.8,0,5.2,2.4,5.2,5.2C145.8,38.8,143.4,41,140.6,41z M140.6,108c2.8,0,5.2-2.4,5.2-5.2s-2.2-5.2-5.2-5.2
				c-2.8,0-5.2,2.4-5.2,5.2S137.8,108,140.6,108z"/>
		</g>
	</g>
</g>
</svg>
