<svg version="1.1" id="Layer_1" xmlns="http://www.w3.org/2000/svg" x="0" y="0" viewBox="0 0 180 180" style="enable-background:new 0 0 180 180" xml:space="preserve"><style>.st0{fill:#fff}.st1{fill:#020000}</style><rect class="st0" width="180" height="180"/><path class="st1" d="m52.2 64.2 8.8 5.2c-4.2 7.2-11.4 12-19.4 12.8V41h12.8v-5H41.6V25.4c3.6-1 6.4-3.8 7.2-7.4 1.4-5.6-1.8-11.2-7.2-12.6s-11 1.8-12.4 7.4S31 24 36.4 25.4V36H23.8v5.2h12.6v41.2C28.2 81.6 21 76.8 17 69.6l8.8-5.2L5 58.6l7.4 12.8c2.8 5 6.8 9.2 12 12 14.8 8.2 33.2 2.8 41.4-12l7.4-12.8-21 5.6zM34 15.4c0-2.8 2.2-5.2 5-5.2s5 2.4 5 5.2-2.2 5.2-5 5.2-5-2.4-5-5.2z"/><ellipse class="st1" cx="39" cy="144.2" rx="5" ry="5.2"/><path class="st1" d="M138 128.6h-12.8v-5.2H138v-10.6c-5.4-1.4-8.8-7-7.4-12.6 1.4-5.6 7-8.8 12.4-7.4s8.8 7 7.4 12.6c-1 3.6-3.8 6.4-7.4 7.4v10.6h13v5.2h-12.8v41c8.2-.8 15.6-5.6 19.6-12.8l-8.8-5 21-5.6-7.4 12.8c-8.2 15-27 20.4-41.8 12.2-5-2.8-9.2-7-12.2-12.2l-7.4-12.8 21 5.6-8.8 5.2c4.2 7.2 11.4 12 19.6 12.8v-41.2zm2.6-87.6c-2.8 0-5.2-2.4-5.2-5.2s2.2-5.2 5.2-5.2c2.8 0 5.2 2.4 5.2 5.2 0 3-2.4 5.2-5.2 5.2zm0 67c2.8 0 5.2-2.4 5.2-5.2s-2.2-5.2-5.2-5.2c-2.8 0-5.2 2.4-5.2 5.2s2.4 5.2 5.2 5.2z"/></svg>