<svg id="Ñëîé_1" data-name="Ñëîé 1" xmlns="http://www.w3.org/2000/svg" viewBox="0 0 1000 1000"><defs><style>.cls-1{fill:#fff;}.cls-2{fill:#1a1a1a;}</style></defs><rect class="cls-1" width="1000" height="1000"/><path class="cls-2" d="M987.64,954.44q-3.54.54-7.17,1.47A58.48,58.48,0,0,0,965,962.37a56.49,56.49,0,0,0-10.56,8.13C947,977.8,941.56,987,937,996.44c-.58,1.18-1.14,2.37-1.69,3.56h57.51A84.73,84.73,0,0,0,987.64,954.44Z"/><path class="cls-2" d="M987,955.6l.9-.15-1.15-.48C986.85,955.18,986.93,955.39,987,955.6Z"/><path class="cls-2" d="M939,994.7a110.29,110.29,0,0,1,9.29-15.51,58.31,58.31,0,0,1,29.6-21.45A68.26,68.26,0,0,1,987,955.6c-.08-.21-.16-.42-.25-.63l1.15.48-.9.15a83.73,83.73,0,0,1,4.75,44.4h2a89,89,0,0,0,.14-26.62,81.48,81.48,0,0,0-5.41-19.47,1,1,0,0,0-1.15-.49c-12.34,2-23.94,7.07-33.17,15.82-8.73,8.29-14.71,19.22-19.76,30.13l-.28.63h2.26C937.25,998.22,938.09,996.45,939,994.7Z"/><path class="cls-1" d="M1000,953.56a78.77,78.77,0,0,0-12.7.88,82.63,82.63,0,0,1,5.29,45.56H1000Z"/><path class="cls-2" d="M987.58,955.45l1.2-.17c-.19-.46-.37-.92-.57-1.37Z"/><path class="cls-2" d="M993.76,973.38a80,80,0,0,0-5-18.1l-1.2.17.63-1.54c.2.45.38.91.57,1.37a85.6,85.6,0,0,1,11.22-.74v-2.06a89.21,89.21,0,0,0-13,.94c-.75.12-.87,1-.63,1.55a81.68,81.68,0,0,1,5.13,45h2.09A86.72,86.72,0,0,0,993.76,973.38Z"/><path class="cls-2" d="M955.14,981.61c1.39-3.58,3.21-7.31,6.37-9.67,2.24-1.61,4.68-2.06,7.28-2.76a7.79,7.79,0,0,0,5.11-3.55c1.44-2.72.41-5.94-.42-8.66s-1.79-5.58-2.78-8.34A180.23,180.23,0,0,0,955,915.55a128.18,128.18,0,0,0-10.2-14.47,33.39,33.39,0,0,0-5.18-5.57,17,17,0,0,0-6.13-3A12.38,12.38,0,0,0,921.09,896c-4.38,4.76-6.17,10.9-6.17,17.28a36.42,36.42,0,0,0,1.4,9.57,18.55,18.55,0,0,1,.64,2.29c.12.81.26,1.62.4,2.42.31,1.81.65,3.62,1,5.43.64,3.51,1.31,6.87.47,10.41-.78,3.28-2.42,6.32-3.75,9.4a66.53,66.53,0,0,0-3.24,9,44,44,0,0,0-1.37,9.35,21.5,21.5,0,0,0,1.26,9,49.7,49.7,0,0,0,2.37,5.07,55,55,0,0,0,7.66,11.09,33.66,33.66,0,0,0,3.91,3.73h20.56a23.28,23.28,0,0,0,4.49-6.71C952.46,989.51,953.63,985.49,955.14,981.61Z"/><path class="cls-1" d="M957.54,949.34A77.13,77.13,0,0,0,947,928.08c-2.9-4.31-5.95-8.64-9.25-12.66-1.2-1.46-3.53-4.12-5.62-2.58-1,.74-1.42,2.55-1.51,3.69-.26,3.75,1.07,6.92,1.92,10.5a43.62,43.62,0,0,1,1.21,10.44,40,40,0,0,1-1.46,10.43c-.94,3.37-2.56,6.25-4,9.41-.56,1.24-1.16,2.44-1.77,3.63-3.09,5.9-6.6,11.33-5.87,19,.35,3.64,6.12,18.76,11.48,18.83a3.68,3.68,0,0,0,2.93-1.72,44.38,44.38,0,0,0,4.2-7.87,70.62,70.62,0,0,1,5.22-9.92A33.06,33.06,0,0,1,947,976c3.59-4,11.56-6.52,12.25-8.8a19.74,19.74,0,0,0,.6-4.74,36.9,36.9,0,0,0-.54-4.85A78.16,78.16,0,0,0,957.54,949.34Z"/><path class="cls-2" d="M487.64,954.44q-3.54.54-7.17,1.47A58.48,58.48,0,0,0,465,962.37a56.49,56.49,0,0,0-10.56,8.13C447,977.8,441.56,987,437,996.44c-.58,1.18-1.14,2.37-1.69,3.56h57.51A84.73,84.73,0,0,0,487.64,954.44Z"/><path class="cls-2" d="M545.62,970.5a56.42,56.42,0,0,0-10.55-8.13,58.76,58.76,0,0,0-15.52-6.46c-2.43-.62-4.81-1.11-7.18-1.47a84.73,84.73,0,0,0-5.15,45.56h57.51c-.55-1.19-1.11-2.38-1.68-3.56C558.45,987,553.05,977.8,545.62,970.5Z"/><path class="cls-2" d="M487,955.6l.9-.15-1.15-.48C486.85,955.18,486.93,955.39,487,955.6Z"/><path class="cls-2" d="M513,955.6l.26-.63-1.16.48Z"/><path class="cls-2" d="M540.21,964.54a62.13,62.13,0,0,0-27.57-11.12,1,1,0,0,0-1.15.49,86.2,86.2,0,0,0-5.28,46.09h2.06a85.7,85.7,0,0,1,.1-28A79.5,79.5,0,0,1,513,955.6l-.9-.15,1.16-.48-.26.63c12.15,2.08,23.51,7.25,32.41,16.15,7.91,7.92,13.5,18,18.2,28.25h2.26c-1.14-2.47-2.33-4.92-3.56-7.33C556.81,981.88,549.91,971.75,540.21,964.54Z"/><path class="cls-2" d="M439,994.7a110.29,110.29,0,0,1,9.29-15.51,58.31,58.31,0,0,1,29.6-21.45A68.26,68.26,0,0,1,487,955.6c-.08-.21-.16-.42-.25-.63l1.15.48-.9.15a83.73,83.73,0,0,1,4.75,44.4h2a89,89,0,0,0,.14-26.62,81.48,81.48,0,0,0-5.41-19.47,1,1,0,0,0-1.15-.49c-12.34,2-23.94,7.07-33.17,15.82-8.73,8.29-14.71,19.22-19.76,30.13l-.28.63h2.26C437.25,998.22,438.09,996.45,439,994.7Z"/><path class="cls-1" d="M512.7,954.44a92.08,92.08,0,0,0-25.4,0,82.63,82.63,0,0,1,5.29,45.56h14.82A82.63,82.63,0,0,1,512.7,954.44Z"/><path class="cls-2" d="M512.5,953.36l.36,0A.9.9,0,0,0,512.5,953.36Z"/><path class="cls-2" d="M487.58,955.45l1.2-.17c-.19-.46-.37-.92-.57-1.37Z"/><path class="cls-2" d="M508.58,972a77.67,77.67,0,0,1,5-17,1.05,1.05,0,0,0,.09-.37,1.15,1.15,0,0,1-1.27.85l-1.2-.17a84.33,84.33,0,0,0-4.85,44.72h2.11A83.56,83.56,0,0,1,508.58,972Z"/><path class="cls-2" d="M493.76,973.38a80,80,0,0,0-5-18.1l-1.2.17.63-1.54c.2.45.38.91.57,1.37a86,86,0,0,1,22.44,0c.19-.46.37-.92.57-1.37a.83.83,0,0,1,.71-.55,89.08,89.08,0,0,0-25.47.06c-.75.12-.87,1-.63,1.55a81.68,81.68,0,0,1,5.13,45h2.09A86.72,86.72,0,0,0,493.76,973.38Z"/><path class="cls-2" d="M513,953.42h-.11a1.21,1.21,0,0,1,.83,1.19A.87.87,0,0,0,513,953.42Z"/><path class="cls-2" d="M512.86,953.41l-.36,0a.83.83,0,0,0-.71.55c-.2.45-.38.91-.57,1.37l1.2.17a1.15,1.15,0,0,0,1.27-.85A1.21,1.21,0,0,0,512.86,953.41Z"/><path class="cls-2" d="M455.14,981.61c1.39-3.58,3.21-7.31,6.37-9.67,2.24-1.61,4.68-2.06,7.28-2.76a7.79,7.79,0,0,0,5.11-3.55c1.44-2.72.41-5.94-.42-8.66s-1.79-5.58-2.78-8.34A180.23,180.23,0,0,0,455,915.55a128.18,128.18,0,0,0-10.2-14.47,33.39,33.39,0,0,0-5.18-5.57,17,17,0,0,0-6.13-3A12.38,12.38,0,0,0,421.09,896c-4.38,4.76-6.17,10.9-6.17,17.28a36.42,36.42,0,0,0,1.4,9.57,18.55,18.55,0,0,1,.64,2.29c.12.81.26,1.62.4,2.42.31,1.81.65,3.62,1,5.43.64,3.51,1.31,6.87.47,10.41-.78,3.28-2.42,6.32-3.75,9.4a66.53,66.53,0,0,0-3.24,9,44,44,0,0,0-1.37,9.35,21.34,21.34,0,0,0,1.26,9,49.7,49.7,0,0,0,2.37,5.07,55,55,0,0,0,7.66,11.09,33.66,33.66,0,0,0,3.91,3.73h20.56a23.28,23.28,0,0,0,4.49-6.71C452.46,989.51,453.63,985.49,455.14,981.61Z"/><path class="cls-2" d="M585.32,986.28a55.34,55.34,0,0,0,2.56-5.18,21.29,21.29,0,0,0,1.7-8.07,46.38,46.38,0,0,0-3.93-18.56c-1.26-3.07-2.8-6-3.89-9.16a18.93,18.93,0,0,1-1-4.82,23.31,23.31,0,0,1,.56-5.45c.58-3.45,1.29-6.87,1.8-10.33a22.8,22.8,0,0,1,.69-2.27c.21-.76.39-1.53.55-2.3a37.58,37.58,0,0,0,.67-4.94c.46-6.37-1-12.89-5-17.94a13.76,13.76,0,0,0-5.64-4.43,12.77,12.77,0,0,0-6.54-.6,16,16,0,0,0-6.31,2.47,24.91,24.91,0,0,0-5.15,5A114,114,0,0,0,546,914a177.55,177.55,0,0,0-16,32.94q-1.6,4.32-3,8.71c-.93,2.93-2.17,6.16-1.15,9.23.75,2.24,2.78,3.45,4.92,4.15,1.16.37,2.36.57,3.54.87a13,13,0,0,1,4.25,2c3,2.22,4.74,5.66,6.11,9,1.51,3.72,2.65,7.58,4.22,11.27a24.16,24.16,0,0,0,5,7.78h20.53a35.24,35.24,0,0,0,3-2.72A52.53,52.53,0,0,0,585.32,986.28Z"/><path class="cls-1" d="M457.54,949.34A77.13,77.13,0,0,0,447,928.08c-2.9-4.31-5.95-8.64-9.25-12.66-1.2-1.46-3.53-4.12-5.62-2.58-1,.74-1.42,2.55-1.51,3.69-.26,3.75,1.07,6.92,1.92,10.5a43.62,43.62,0,0,1,1.21,10.44,40,40,0,0,1-1.46,10.43c-.94,3.37-2.56,6.25-4,9.41-.56,1.24-1.16,2.44-1.77,3.63-3.09,5.9-6.6,11.33-5.87,19,.35,3.64,6.12,18.76,11.48,18.83a3.68,3.68,0,0,0,2.93-1.72,44.38,44.38,0,0,0,4.2-7.87,70.62,70.62,0,0,1,5.22-9.92A33.06,33.06,0,0,1,447,976c3.59-4,11.56-6.52,12.25-8.8a19.74,19.74,0,0,0,.6-4.74,36.9,36.9,0,0,0-.54-4.85A78.16,78.16,0,0,0,457.54,949.34Z"/><path class="cls-1" d="M570.12,957.31c-1.41-3.16-3-6-4-9.41a40,40,0,0,1-1.46-10.43A44.14,44.14,0,0,1,565.9,927c.85-3.58,2.19-6.75,1.92-10.5-.08-1.14-.5-2.95-1.51-3.69-2.09-1.54-4.41,1.12-5.62,2.58-3.3,4-6.35,8.35-9.25,12.66a77.13,77.13,0,0,0-10.52,21.26,78.16,78.16,0,0,0-1.72,8.29,36.9,36.9,0,0,0-.54,4.85,19.74,19.74,0,0,0,.6,4.74c.69,2.28,8.67,4.8,12.26,8.8a34.66,34.66,0,0,1,2.4,3.2,70.62,70.62,0,0,1,5.22,9.92,44.38,44.38,0,0,0,4.2,7.87,3.68,3.68,0,0,0,2.93,1.72c5.37-.07,11.14-15.19,11.48-18.83.73-7.63-2.78-13.06-5.86-19C571.27,959.75,570.67,958.55,570.12,957.31Z"/><path class="cls-2" d="M45.62,970.5a56.42,56.42,0,0,0-10.55-8.13,58.76,58.76,0,0,0-15.52-6.46c-2.43-.62-4.81-1.11-7.18-1.47A84.73,84.73,0,0,0,7.22,1000H64.73c-.55-1.19-1.11-2.38-1.68-3.56C58.45,987,53.05,977.8,45.62,970.5Z"/><path class="cls-2" d="M13,955.6l.26-.63-1.16.48Z"/><path class="cls-2" d="M40.21,964.54a62.13,62.13,0,0,0-27.57-11.12,1,1,0,0,0-1.15.49A86.2,86.2,0,0,0,6.21,1000H8.27a85.7,85.7,0,0,1,.1-28A79.5,79.5,0,0,1,13,955.6l-.9-.15,1.16-.48-.26.63c12.15,2.08,23.51,7.25,32.41,16.15,7.91,7.92,13.5,18,18.2,28.25h2.26c-1.14-2.47-2.33-4.92-3.56-7.33C56.81,981.88,49.91,971.75,40.21,964.54Z"/><path class="cls-1" d="M12.7,954.44A78.77,78.77,0,0,0,0,953.56V1000H7.41A82.63,82.63,0,0,1,12.7,954.44Z"/><path class="cls-2" d="M12.5,953.36l.36,0A.9.9,0,0,0,12.5,953.36Z"/><path class="cls-2" d="M8.58,972a77.67,77.67,0,0,1,5-17,1.05,1.05,0,0,0,.09-.37,1.15,1.15,0,0,1-1.27.85l-1.2-.17A84.33,84.33,0,0,0,6.37,1000H8.48A83.56,83.56,0,0,1,8.58,972Z"/><path class="cls-2" d="M11.22,955.28c.19-.46.37-.92.57-1.37a.83.83,0,0,1,.71-.55A88.41,88.41,0,0,0,0,952.48v2.06A85.6,85.6,0,0,1,11.22,955.28Z"/><path class="cls-2" d="M13,953.42h-.11a1.21,1.21,0,0,1,.83,1.19A.87.87,0,0,0,13,953.42Z"/><path class="cls-2" d="M12.86,953.41l-.36,0a.83.83,0,0,0-.71.55c-.2.45-.38.91-.57,1.37l1.2.17a1.15,1.15,0,0,0,1.27-.85A1.21,1.21,0,0,0,12.86,953.41Z"/><path class="cls-2" d="M85.32,986.28a55.34,55.34,0,0,0,2.56-5.18,21.29,21.29,0,0,0,1.7-8.07,46.38,46.38,0,0,0-3.93-18.56c-1.26-3.07-2.8-6-3.89-9.16a18.93,18.93,0,0,1-1-4.82,23.31,23.31,0,0,1,.56-5.45c.58-3.45,1.29-6.87,1.8-10.33a22.8,22.8,0,0,1,.69-2.27c.21-.76.39-1.53.55-2.3A37.58,37.58,0,0,0,85,915.2c.46-6.37-1-12.89-5-17.94a13.76,13.76,0,0,0-5.64-4.43,12.77,12.77,0,0,0-6.54-.6,16,16,0,0,0-6.31,2.47,24.91,24.91,0,0,0-5.15,5A114,114,0,0,0,46,914a177.55,177.55,0,0,0-16,32.94q-1.61,4.32-3,8.71c-.93,2.93-2.17,6.16-1.15,9.23.75,2.24,2.78,3.45,4.92,4.15,1.16.37,2.36.57,3.54.87a13,13,0,0,1,4.25,2c3,2.22,4.74,5.66,6.11,9,1.51,3.72,2.65,7.58,4.22,11.27a24.16,24.16,0,0,0,5,7.78H74.34a35.24,35.24,0,0,0,3-2.72A52.53,52.53,0,0,0,85.32,986.28Z"/><path class="cls-1" d="M70.12,957.31c-1.41-3.16-3-6-4-9.41a40,40,0,0,1-1.46-10.43A44.14,44.14,0,0,1,65.9,927c.85-3.58,2.19-6.75,1.92-10.5-.08-1.14-.5-2.95-1.51-3.69-2.09-1.54-4.41,1.12-5.62,2.58-3.3,4-6.35,8.35-9.25,12.66a77.13,77.13,0,0,0-10.52,21.26,78.16,78.16,0,0,0-1.72,8.29,36.9,36.9,0,0,0-.54,4.85,19.74,19.74,0,0,0,.6,4.74c.69,2.28,8.67,4.8,12.26,8.8a34.66,34.66,0,0,1,2.4,3.2,70.62,70.62,0,0,1,5.22,9.92,44.38,44.38,0,0,0,4.2,7.87,3.68,3.68,0,0,0,2.93,1.72c5.37-.07,11.14-15.19,11.48-18.83.73-7.63-2.78-13.06-5.86-19C71.27,959.75,70.67,958.55,70.12,957.31Z"/><path class="cls-2" d="M813.05,746.44c-4.6-9.44-10-18.64-17.43-25.94a56.42,56.42,0,0,0-10.55-8.13,58.76,58.76,0,0,0-15.52-6.46c-2.43-.62-4.81-1.11-7.18-1.47-10.82,26-7.41,57.88,9.08,80.6,0,0-13.91,5.66-21.44,2.66-7.54,3-21.45-2.66-21.45-2.66,16.5-22.72,19.91-54.61,9.08-80.6q-3.54.54-7.17,1.47A58.48,58.48,0,0,0,715,712.37a56.49,56.49,0,0,0-10.56,8.13C697,727.8,691.56,737,687,746.44c-5,10.2-9.12,20.93-10.92,32.18s-1.13,23.09,3.24,33.57c5.6,13.4,17.44,24,31.24,27.38A42.75,42.75,0,0,0,750,828.94a42.73,42.73,0,0,0,39.48,10.63c13.8-3.41,25.64-14,31.23-27.38,4.37-10.48,5-22.32,3.24-33.57S818,756.64,813.05,746.44Z"/><path class="cls-2" d="M823,778.89c.21,1.34,2.18.77,2-.55S822.77,777.57,823,778.89Z"/><path class="cls-2" d="M737,705.6l.9-.15-1.15-.48C736.85,705.18,736.93,705.39,737,705.6Z"/><path class="cls-2" d="M763,705.6l.26-.63-1.16.48Z"/><path class="cls-2" d="M770.57,785.57c.2-.51.4-1,.61-1.54-.44.18-.89.34-1.34.51C770.08,784.88,770.32,785.23,770.57,785.57Z"/><path class="cls-2" d="M750,830.36l.72-.68h-1.45C749.52,829.91,749.76,830.14,750,830.36Z"/><path class="cls-2" d="M823,778.89c1.91,12.17.92,25.11-4.72,36.15a46.73,46.73,0,0,1-21.83,21,41.63,41.63,0,0,1-45.7-7.85,1,1,0,0,0-1.45,0,41.78,41.78,0,0,1-29,11.51,42.51,42.51,0,0,1-28.18-11.24,48.66,48.66,0,0,1-15.23-28.77c-2-12.63.32-25.56,4.5-37.47A151.31,151.31,0,0,1,689,744.7a110.29,110.29,0,0,1,9.29-15.51,58.31,58.31,0,0,1,29.6-21.45A68.26,68.26,0,0,1,737,705.6c-.08-.21-.16-.42-.25-.63l1.15.48-.9.15a84.67,84.67,0,0,1-.7,63.58,78,78,0,0,1-8.63,15.33,1.07,1.07,0,0,0,.61,1.54,54.8,54.8,0,0,0,6.72,2.17,32.57,32.57,0,0,0,12.6,1.18,12.47,12.47,0,0,0,1.38-.27l.66-.19c.15-.05.55-.05.29-.15a12.67,12.67,0,0,0,3,.68,25.46,25.46,0,0,0,6.35-.12,53.85,53.85,0,0,0,10.82-2.68c.55-.2,1.1-.4,1.64-.62a1.07,1.07,0,0,0,.61-1.54c-12.81-17.73-17.67-40.84-14-62.51A79.5,79.5,0,0,1,763,705.6l-.9-.15,1.16-.48-.26.63c12.15,2.08,23.51,7.25,32.41,16.15,8.57,8.57,14.41,19.71,19.34,30.77A107.13,107.13,0,0,1,823,778.89c-.21-1.32,1.76-1.89,2-.55-2-12.56-6.91-24.45-12.64-35.67-5.5-10.79-12.4-20.92-22.1-28.13a62.13,62.13,0,0,0-27.57-11.12,1,1,0,0,0-1.15.49,86.91,86.91,0,0,0-.52,64,80,80,0,0,0,8.87,16.67c.45-.17.9-.33,1.34-.51-.21.51-.41,1-.61,1.54-.25-.34-.49-.69-.73-1-1.76.64-3.57,1.18-5.38,1.65-4,1-8.36,1.87-12.44,1-.95-.2-1.75-.71-2.7-.37a11.93,11.93,0,0,1-2.94.61,25.8,25.8,0,0,1-6.39-.32,53.74,53.74,0,0,1-9.81-2.6c-.24.35-.48.7-.73,1-.21-.51-.41-1-.61-1.54l1,.39.32.11c12.22-17.52,16.87-39.92,13.75-61.15a81.48,81.48,0,0,0-5.41-19.47,1,1,0,0,0-1.15-.49c-12.34,2-23.94,7.07-33.17,15.82-8.73,8.29-14.71,19.22-19.76,30.13-5.29,11.45-9.37,23.63-10.2,36.35-.78,11.87,1.55,24.08,7.91,34.14A48.24,48.24,0,0,0,705.32,839a43.43,43.43,0,0,0,30.77-.09A42.56,42.56,0,0,0,750,830.36c-.25-.22-.49-.45-.73-.68h1.45l-.72.68a43.54,43.54,0,0,0,56.56,1.94,49.49,49.49,0,0,0,15.82-21.57c3.88-10.25,4.25-21.63,2.56-32.39C825.16,779.66,823.19,780.23,823,778.89Z"/><path class="cls-2" d="M728.84,784c.2.51.4,1,.61,1.54.25-.34.49-.69.73-1l-.32-.11Z"/><path class="cls-1" d="M762.7,704.44a92.08,92.08,0,0,0-25.4,0c11.12,26,7.62,57.88-9.31,80.6,0,0,14.27,5.66,22,2.66,7.74,3,22-2.66,22-2.66C755.08,762.32,751.58,730.43,762.7,704.44Z"/><path class="cls-2" d="M771.11,785.57l.63-1.54-1.37.51C770.61,784.88,770.85,785.23,771.11,785.57Z"/><path class="cls-2" d="M762.5,703.36l.36,0A.9.9,0,0,0,762.5,703.36Z"/><path class="cls-2" d="M737.58,705.45l1.2-.17c-.19-.46-.37-.92-.57-1.37Z"/><path class="cls-2" d="M728.26,784l.63,1.54c.26-.34.5-.69.75-1l-.32-.11C729,784.3,728.61,784.17,728.26,784Z"/><path class="cls-2" d="M758.58,722a77.67,77.67,0,0,1,5-17,1.05,1.05,0,0,0,.09-.37,1.15,1.15,0,0,1-1.27.85l-1.2-.17a84.91,84.91,0,0,0,0,62.59,78.67,78.67,0,0,0,9.11,16.67l1.37-.51-.63,1.54c-.26-.34-.5-.69-.74-1-1.82.64-3.67,1.18-5.53,1.65-4.08,1-8.59,1.87-12.78,1-1-.2-1.79-.71-2.77-.37a12.36,12.36,0,0,1-3,.61,27.1,27.1,0,0,1-6.55-.32,56.53,56.53,0,0,1-10.08-2.6c-.25.35-.49.7-.75,1l-.63-1.54c.35.14.71.27,1.06.39l.32.11C742.19,767,747,744.61,743.76,723.38a80,80,0,0,0-5-18.1l-1.2.17.63-1.54c.2.45.38.91.57,1.37a86,86,0,0,1,22.44,0c.19-.46.37-.92.57-1.37a.83.83,0,0,1,.71-.55,89.08,89.08,0,0,0-25.47.06c-.75.12-.87,1-.63,1.55a82.55,82.55,0,0,1-.47,64.21,76.94,76.94,0,0,1-8.85,15.33c-.44.6.06,1.32.63,1.54a56.78,56.78,0,0,0,6.89,2.17,34.33,34.33,0,0,0,12.94,1.18,13.67,13.67,0,0,0,1.42-.27l.67-.19c.16-.05.57-.05.3-.15a13.32,13.32,0,0,0,3.05.68,26.84,26.84,0,0,0,6.52-.12,56.42,56.42,0,0,0,11.11-2.68c.57-.2,1.13-.4,1.68-.62s1.07-.94.63-1.54C759.77,766.78,754.78,743.67,758.58,722Z"/><path class="cls-2" d="M763,703.42h-.11a1.21,1.21,0,0,1,.83,1.19A.87.87,0,0,0,763,703.42Z"/><path class="cls-2" d="M762.86,703.41l-.36,0a.83.83,0,0,0-.71.55c-.2.45-.38.91-.57,1.37l1.2.17a1.15,1.15,0,0,0,1.27-.85A1.21,1.21,0,0,0,762.86,703.41Z"/><ellipse class="cls-1" cx="749.97" cy="825.17" rx="44.33" ry="31.72"/><path class="cls-2" d="M784.42,803.82c-7.6-6.41-17.36-9.81-27.13-11A59.88,59.88,0,0,0,726,797.34c-8,3.54-15.42,9.46-19.11,17.53A25,25,0,0,0,708.21,838c4.6,7.86,12.69,13.16,21,16.3a61,61,0,0,0,31.83,2.6c9.45-1.67,18.79-5.75,25.66-12.55,5.16-5.1,8.57-11.9,8.61-19.22a1.05,1.05,0,0,1-2.1,0c0,8.49-5,15.85-11.59,20.87-8.07,6.16-18.3,9.14-28.33,9.71a55.82,55.82,0,0,1-30.43-6.66c-7.37-4.16-13.79-10.74-15.71-19.2-1.85-8.15,1.45-16.24,7.11-22.09,6.76-7,16.28-10.88,25.73-12.5a58.56,58.56,0,0,1,31.75,3.38c8.14,3.32,15.75,9.12,19.47,17.25a22.65,22.65,0,0,1,2,9.24,1.05,1.05,0,0,1,2.1,0C795.31,816.68,790.78,809.17,784.42,803.82Z"/><path class="cls-2" d="M793.26,825.17a1.05,1.05,0,0,0,2.1,0A1.05,1.05,0,0,0,793.26,825.17Z"/><path class="cls-1" d="M750,774.17c-19.61.38-36.27,16.88-46.16,31.5-7.16,10.59-22.65,33.75-8.34,44.49,7.71,5.79,17.21,2.77,24.25-2.51,8.09-6.06,15.41-15.79,25.87-18.54,13.12-3.46,25.46,11.68,34.62,18.54,7,5.28,16.54,8.3,24.25,2.51,14.31-10.74-1.18-33.9-8.34-44.49C786.29,791.05,769.63,774.55,750,774.17Z"/><path class="cls-2" d="M797.08,805.14c.77,1.12-1.05,2.17-1.81,1.06,4.72,7,9.41,14.19,12.21,22.19,1.34,3.86,2.29,8.09,1.67,12.19a13.64,13.64,0,0,1-6.92,9.83c-4.9,2.85-10.82,2-15.76-.23-4.47-2.06-8.14-5.36-11.79-8.58-6.92-6.1-14.91-13.7-24.69-14-5-.18-9.81,2.19-13.83,4.91-4.35,2.94-8.12,6.65-12,10.16s-8.21,7-13.38,8.65-11,1.13-15.32-2.52c-6.87-5.78-4.93-15.33-2-22.65,3.13-7.88,8-15.18,12.85-22.07,6.1-8.56,13.61-16.43,22.57-22a45.76,45.76,0,0,1,14.55-6,32.56,32.56,0,0,1,15.69.6c7.73,2.12,14.66,6.58,20.66,11.81a92.48,92.48,0,0,1,15.52,17.81c-.76-1.13,1.06-2.18,1.81-1.06a90.08,90.08,0,0,0-21.35-22.62c-8.43-6.09-19-10.4-29.5-9.13s-20,7-27.89,13.94c-7.22,6.4-13,14.08-18.25,22.12-4.74,7.29-9.43,15.27-11,23.93a19.93,19.93,0,0,0,1,11.73,16.25,16.25,0,0,0,10.3,8.62c5.2,1.54,10.77.09,15.46-2.33s8.52-6.1,12.36-9.61,7.82-7.11,12.49-9.6c4.39-2.34,9-3.19,13.82-1.76s8.82,4.38,12.57,7.4,7.18,6.33,10.9,9.35c4,3.29,8.69,6,13.89,6.89a17.24,17.24,0,0,0,14.61-4.16c6.5-5.84,5.5-15.12,2.85-22.58C806.48,819.34,801.81,812.12,797.08,805.14Z"/><path class="cls-2" d="M795.27,806.2c.76,1.11,2.58.06,1.81-1.06S794.51,805.07,795.27,806.2Z"/><ellipse class="cls-1" cx="787.91" cy="769.85" rx="13.66" ry="13.86"/><ellipse class="cls-2" cx="787.67" cy="770.62" rx="9.71" ry="9.85"/><path class="cls-1" d="M792.12,761.29a3.44,3.44,0,1,0,3.39,3.44A3.41,3.41,0,0,0,792.12,761.29Z"/><ellipse class="cls-1" cx="712.09" cy="769.85" rx="13.66" ry="13.86"/><ellipse class="cls-2" cx="712.6" cy="770.62" rx="9.71" ry="9.85"/><path class="cls-1" d="M717.05,761.29a3.44,3.44,0,1,0,3.39,3.44A3.41,3.41,0,0,0,717.05,761.29Z"/><path class="cls-2" d="M749,805.33v22.52a1.05,1.05,0,0,0,2.1,0V805.33A1.05,1.05,0,0,0,749,805.33Z"/><path class="cls-2" d="M720.7,698.63A180.23,180.23,0,0,0,705,665.55a128.18,128.18,0,0,0-10.2-14.47,33.39,33.39,0,0,0-5.18-5.57,17,17,0,0,0-6.13-3A12.38,12.38,0,0,0,671.09,646c-4.38,4.76-6.17,10.9-6.17,17.28a36.42,36.42,0,0,0,1.4,9.57,18.55,18.55,0,0,1,.64,2.29c.12.81.26,1.62.4,2.42.31,1.81.65,3.62,1,5.43.64,3.51,1.31,6.87.47,10.41-.78,3.28-2.42,6.32-3.75,9.4a66.53,66.53,0,0,0-3.24,9,44,44,0,0,0-1.37,9.35,21.5,21.5,0,0,0,1.26,9,49.7,49.7,0,0,0,2.37,5.07,55,55,0,0,0,7.66,11.09c2.87,3.2,6.35,6.07,10.47,7.42A13.55,13.55,0,0,0,693.7,752c3.24-2,5.41-5.33,7-8.74,1.76-3.78,2.93-7.8,4.44-11.68,1.39-3.58,3.21-7.31,6.37-9.67,2.24-1.61,4.68-2.06,7.28-2.76a7.79,7.79,0,0,0,5.11-3.55c1.44-2.72.41-5.94-.42-8.66S721.69,701.39,720.7,698.63Z"/><path class="cls-2" d="M831.76,695.31a18.93,18.93,0,0,1-1-4.82,23.31,23.31,0,0,1,.56-5.45c.58-3.45,1.29-6.87,1.8-10.33a22.8,22.8,0,0,1,.69-2.27c.21-.76.39-1.53.55-2.3a37.58,37.58,0,0,0,.67-4.94c.46-6.37-1-12.89-5-17.94a13.76,13.76,0,0,0-5.64-4.43,12.77,12.77,0,0,0-6.54-.6,16,16,0,0,0-6.31,2.47,24.91,24.91,0,0,0-5.15,5A114,114,0,0,0,796,664a177.55,177.55,0,0,0-16,32.94q-1.6,4.32-3,8.71c-.93,2.93-2.17,6.16-1.15,9.23.75,2.24,2.78,3.45,4.92,4.15,1.16.37,2.36.57,3.54.87a13,13,0,0,1,4.25,2c3,2.22,4.74,5.66,6.11,9,1.51,3.72,2.65,7.58,4.22,11.27a21.89,21.89,0,0,0,6.56,9.16A13.76,13.76,0,0,0,816.64,754c4.17-.89,7.76-3.74,10.67-6.72a52.53,52.53,0,0,0,8-11,55.34,55.34,0,0,0,2.56-5.18,21.29,21.29,0,0,0,1.7-8.07,46.38,46.38,0,0,0-3.93-18.56C834.39,701.4,832.85,698.44,831.76,695.31Z"/><path class="cls-1" d="M707.54,699.34A77.13,77.13,0,0,0,697,678.08c-2.9-4.31-5.95-8.64-9.25-12.66-1.2-1.46-3.53-4.12-5.62-2.58-1,.74-1.42,2.55-1.51,3.69-.26,3.75,1.07,6.92,1.92,10.5a43.62,43.62,0,0,1,1.21,10.44,40,40,0,0,1-1.46,10.43c-.94,3.37-2.56,6.25-4,9.41-.56,1.24-1.16,2.44-1.77,3.63-3.09,5.9-6.6,11.33-5.87,19,.35,3.64,6.12,18.76,11.48,18.83a3.68,3.68,0,0,0,2.93-1.72,44.38,44.38,0,0,0,4.2-7.87,70.62,70.62,0,0,1,5.22-9.92A33.06,33.06,0,0,1,697,726c3.59-4,11.56-6.52,12.25-8.8a19.74,19.74,0,0,0,.6-4.74,36.9,36.9,0,0,0-.54-4.85A78.16,78.16,0,0,0,707.54,699.34Z"/><path class="cls-1" d="M820.12,707.31c-1.41-3.16-3-6-4-9.41a40,40,0,0,1-1.46-10.43A44.14,44.14,0,0,1,815.9,677c.85-3.58,2.19-6.75,1.92-10.5-.08-1.14-.5-2.95-1.51-3.69-2.09-1.54-4.41,1.12-5.62,2.58-3.3,4-6.35,8.35-9.25,12.66a77.13,77.13,0,0,0-10.52,21.26,78.16,78.16,0,0,0-1.72,8.29,36.9,36.9,0,0,0-.54,4.85,19.74,19.74,0,0,0,.6,4.74c.69,2.28,8.67,4.8,12.26,8.8a34.66,34.66,0,0,1,2.4,3.2,70.62,70.62,0,0,1,5.22,9.92,44.38,44.38,0,0,0,4.2,7.87,3.68,3.68,0,0,0,2.93,1.72c5.37-.07,11.14-15.19,11.48-18.83.73-7.63-2.78-13.06-5.86-19C821.27,709.75,820.67,708.55,820.12,707.31Z"/><path class="cls-2" d="M760.71,782.37a39.57,39.57,0,0,0-21.37,0c-3.43,1-7.19,2.55-8.84,5.8a6.53,6.53,0,0,0,.51,7,5.3,5.3,0,0,0,6.83,1.13,26.16,26.16,0,0,0,2.08-2,3,3,0,0,1,2.66-.88c1.34.36,1.82,2,1.64,3.31-.5,3.61-4.67,6.31-8.33,5.39,3,5.11,8.51,6.6,14.14,6.51,5.62.09,11.17-1.4,14.13-6.51-3.66.92-7.83-1.78-8.33-5.39-.18-1.32.3-3,1.64-3.31a3,3,0,0,1,2.66.88,26.16,26.16,0,0,0,2.08,2,5.3,5.3,0,0,0,6.83-1.13,6.53,6.53,0,0,0,.51-7C767.9,784.92,764.14,783.35,760.71,782.37Z"/><path class="cls-2" d="M714,821.26a1.92,1.92,0,1,0,1.92,1.91A1.91,1.91,0,0,0,714,821.26Z"/><circle class="cls-2" cx="708.56" cy="837.73" r="1.92"/><path class="cls-2" d="M722.75,829.75a1.92,1.92,0,1,0,1.92,1.92A1.92,1.92,0,0,0,722.75,829.75Z"/><path class="cls-2" d="M728.64,816.46a1.92,1.92,0,1,0,1.92,1.91A1.91,1.91,0,0,0,728.64,816.46Z"/><path class="cls-2" d="M786,821.26a1.92,1.92,0,1,0,1.91,1.91A1.92,1.92,0,0,0,786,821.26Z"/><circle class="cls-2" cx="791.44" cy="837.73" r="1.92"/><path class="cls-2" d="M777.25,829.75a1.92,1.92,0,1,0,1.92,1.92A1.92,1.92,0,0,0,777.25,829.75Z"/><path class="cls-2" d="M771.36,816.46a1.92,1.92,0,1,0,1.92,1.91A1.91,1.91,0,0,0,771.36,816.46Z"/><path class="cls-2" d="M313.05,746.44c-4.6-9.44-10-18.64-17.43-25.94a56.42,56.42,0,0,0-10.55-8.13,58.76,58.76,0,0,0-15.52-6.46c-2.43-.62-4.81-1.11-7.18-1.47-10.82,26-7.41,57.88,9.08,80.6,0,0-13.91,5.66-21.44,2.66-7.54,3-21.45-2.66-21.45-2.66,16.5-22.72,19.91-54.61,9.08-80.6q-3.54.54-7.17,1.47A58.48,58.48,0,0,0,215,712.37a56.49,56.49,0,0,0-10.56,8.13C197,727.8,191.56,737,187,746.44c-5,10.2-9.12,20.93-10.92,32.18s-1.13,23.09,3.24,33.57c5.6,13.4,17.44,24,31.24,27.38A42.75,42.75,0,0,0,250,828.94a42.73,42.73,0,0,0,39.48,10.63c13.8-3.41,25.64-14,31.23-27.38,4.37-10.48,5-22.32,3.24-33.57S318,756.64,313.05,746.44Z"/><path class="cls-2" d="M323,778.89c.21,1.34,2.18.77,2-.55S322.77,777.57,323,778.89Z"/><path class="cls-2" d="M237,705.6l.9-.15-1.15-.48C236.85,705.18,236.93,705.39,237,705.6Z"/><path class="cls-2" d="M263,705.6l.26-.63-1.16.48Z"/><path class="cls-2" d="M270.57,785.57c.2-.51.4-1,.61-1.54-.44.18-.89.34-1.34.51C270.08,784.88,270.32,785.23,270.57,785.57Z"/><path class="cls-2" d="M250,830.36l.72-.68h-1.45C249.52,829.91,249.76,830.14,250,830.36Z"/><path class="cls-2" d="M323,778.89c1.91,12.17.92,25.11-4.72,36.15a46.73,46.73,0,0,1-21.83,21,41.63,41.63,0,0,1-45.7-7.85,1,1,0,0,0-1.45,0,41.78,41.78,0,0,1-29,11.51,42.51,42.51,0,0,1-28.18-11.24,48.66,48.66,0,0,1-15.23-28.77c-2-12.63.32-25.56,4.5-37.47A151.31,151.31,0,0,1,189,744.7a110.29,110.29,0,0,1,9.29-15.51,58.31,58.31,0,0,1,29.6-21.45A68.26,68.26,0,0,1,237,705.6c-.08-.21-.16-.42-.25-.63l1.15.48-.9.15a84.67,84.67,0,0,1-.7,63.58,78,78,0,0,1-8.63,15.33,1.07,1.07,0,0,0,.61,1.54,54.8,54.8,0,0,0,6.72,2.17,32.59,32.59,0,0,0,12.6,1.18,12.47,12.47,0,0,0,1.38-.27l.66-.19c.15-.05.55-.05.29-.15a12.67,12.67,0,0,0,3,.68,25.46,25.46,0,0,0,6.35-.12,53.85,53.85,0,0,0,10.82-2.68c.55-.2,1.1-.4,1.64-.62a1.07,1.07,0,0,0,.61-1.54c-12.81-17.73-17.67-40.84-14-62.51A79.5,79.5,0,0,1,263,705.6l-.9-.15,1.16-.48-.26.63c12.15,2.08,23.51,7.25,32.41,16.15,8.57,8.57,14.41,19.71,19.34,30.77A107.13,107.13,0,0,1,323,778.89c-.21-1.32,1.76-1.89,2-.55-2-12.56-6.91-24.45-12.64-35.67-5.5-10.79-12.4-20.92-22.1-28.13a62.13,62.13,0,0,0-27.57-11.12,1,1,0,0,0-1.15.49,86.91,86.91,0,0,0-.52,64,80,80,0,0,0,8.87,16.67c.45-.17.9-.33,1.34-.51-.21.51-.41,1-.61,1.54-.25-.34-.49-.69-.73-1-1.76.64-3.57,1.18-5.38,1.65-4,1-8.36,1.87-12.44,1-1-.2-1.75-.71-2.7-.37a11.93,11.93,0,0,1-2.94.61,25.8,25.8,0,0,1-6.39-.32,53.74,53.74,0,0,1-9.81-2.6c-.24.35-.48.7-.73,1-.21-.51-.41-1-.61-1.54l1,.39.32.11c12.22-17.52,16.87-39.92,13.75-61.15a81.48,81.48,0,0,0-5.41-19.47,1,1,0,0,0-1.15-.49c-12.34,2-23.94,7.07-33.17,15.82-8.73,8.29-14.71,19.22-19.76,30.13-5.29,11.45-9.37,23.63-10.2,36.35-.78,11.87,1.55,24.08,7.91,34.14A48.24,48.24,0,0,0,205.32,839a43.43,43.43,0,0,0,30.77-.09A42.56,42.56,0,0,0,250,830.36c-.25-.22-.49-.45-.73-.68h1.45l-.72.68a43.54,43.54,0,0,0,56.56,1.94,49.49,49.49,0,0,0,15.82-21.57c3.88-10.25,4.25-21.63,2.56-32.39C325.16,779.66,323.19,780.23,323,778.89Z"/><path class="cls-2" d="M228.84,784c.2.51.4,1,.61,1.54.25-.34.49-.69.73-1l-.32-.11Z"/><path class="cls-1" d="M262.7,704.44a92.08,92.08,0,0,0-25.4,0c11.12,26,7.62,57.88-9.31,80.6,0,0,14.27,5.66,22,2.66,7.74,3,22-2.66,22-2.66C255.08,762.32,251.58,730.43,262.7,704.44Z"/><path class="cls-2" d="M271.11,785.57l.63-1.54-1.37.51C270.61,784.88,270.85,785.23,271.11,785.57Z"/><path class="cls-2" d="M262.5,703.36l.36,0A.9.9,0,0,0,262.5,703.36Z"/><path class="cls-2" d="M237.58,705.45l1.2-.17c-.19-.46-.37-.92-.57-1.37Z"/><path class="cls-2" d="M228.26,784l.63,1.54c.26-.34.5-.69.75-1l-.32-.11C229,784.3,228.61,784.17,228.26,784Z"/><path class="cls-2" d="M258.58,722a77.67,77.67,0,0,1,5-17,1.05,1.05,0,0,0,.09-.37,1.15,1.15,0,0,1-1.27.85l-1.2-.17a84.91,84.91,0,0,0,0,62.59,78.67,78.67,0,0,0,9.11,16.67l1.37-.51-.63,1.54c-.26-.34-.5-.69-.74-1-1.82.64-3.67,1.18-5.53,1.65-4.08,1-8.59,1.87-12.78,1-1-.2-1.79-.71-2.77-.37a12.36,12.36,0,0,1-3,.61,27.1,27.1,0,0,1-6.55-.32,56.53,56.53,0,0,1-10.08-2.6c-.25.35-.49.7-.75,1l-.63-1.54c.35.14.71.27,1.06.39l.32.11C242.19,767,247,744.61,243.76,723.38a80,80,0,0,0-5-18.1l-1.2.17.63-1.54c.2.45.38.91.57,1.37a86,86,0,0,1,22.44,0c.19-.46.37-.92.57-1.37a.83.83,0,0,1,.71-.55,89.08,89.08,0,0,0-25.47.06c-.75.12-.87,1-.63,1.55a82.55,82.55,0,0,1-.47,64.21,76.94,76.94,0,0,1-8.85,15.33c-.44.6.06,1.32.63,1.54a56.78,56.78,0,0,0,6.89,2.17,34.33,34.33,0,0,0,12.94,1.18,13.67,13.67,0,0,0,1.42-.27l.67-.19c.16-.05.57-.05.3-.15a13.32,13.32,0,0,0,3,.68,26.84,26.84,0,0,0,6.52-.12,56.42,56.42,0,0,0,11.11-2.68c.57-.2,1.13-.4,1.68-.62s1.07-.94.63-1.54C259.77,766.78,254.78,743.67,258.58,722Z"/><path class="cls-2" d="M263,703.42h-.11a1.21,1.21,0,0,1,.83,1.19A.87.87,0,0,0,263,703.42Z"/><path class="cls-2" d="M262.86,703.41l-.36,0a.83.83,0,0,0-.71.55c-.2.45-.38.91-.57,1.37l1.2.17a1.15,1.15,0,0,0,1.27-.85A1.21,1.21,0,0,0,262.86,703.41Z"/><ellipse class="cls-1" cx="249.97" cy="825.17" rx="44.33" ry="31.72"/><path class="cls-2" d="M284.42,803.82c-7.6-6.41-17.36-9.81-27.13-11A59.88,59.88,0,0,0,226,797.34c-8,3.54-15.42,9.46-19.11,17.53A25,25,0,0,0,208.21,838c4.6,7.86,12.69,13.16,21,16.3a61,61,0,0,0,31.83,2.6c9.45-1.67,18.79-5.75,25.66-12.55,5.16-5.1,8.57-11.9,8.61-19.22a1.05,1.05,0,0,1-2.1,0c-.05,8.49-5,15.85-11.59,20.87-8.07,6.16-18.3,9.14-28.33,9.71a55.82,55.82,0,0,1-30.43-6.66c-7.37-4.16-13.79-10.74-15.71-19.2-1.85-8.15,1.45-16.24,7.11-22.09,6.76-7,16.28-10.88,25.73-12.5a58.56,58.56,0,0,1,31.75,3.38c8.14,3.32,15.75,9.12,19.47,17.25a22.65,22.65,0,0,1,2,9.24,1.05,1.05,0,0,1,2.1,0C295.31,816.68,290.78,809.17,284.42,803.82Z"/><path class="cls-2" d="M293.26,825.17a1.05,1.05,0,0,0,2.1,0A1.05,1.05,0,0,0,293.26,825.17Z"/><path class="cls-1" d="M250,774.17c-19.61.38-36.27,16.88-46.16,31.5-7.16,10.59-22.65,33.75-8.34,44.49,7.71,5.79,17.21,2.77,24.25-2.51,8.09-6.06,15.41-15.79,25.87-18.54,13.12-3.46,25.46,11.68,34.62,18.54,7,5.28,16.54,8.3,24.25,2.51,14.31-10.74-1.18-33.9-8.34-44.49C286.29,791.05,269.63,774.55,250,774.17Z"/><path class="cls-2" d="M297.08,805.14c.77,1.12-1.05,2.17-1.81,1.06,4.72,7,9.41,14.19,12.21,22.19,1.34,3.86,2.29,8.09,1.67,12.19a13.64,13.64,0,0,1-6.92,9.83c-4.9,2.85-10.82,2-15.76-.23-4.47-2.06-8.14-5.36-11.79-8.58-6.92-6.1-14.91-13.7-24.69-14-5-.18-9.81,2.19-13.83,4.91-4.35,2.94-8.12,6.65-12,10.16s-8.21,7-13.38,8.65-11,1.13-15.32-2.52c-6.87-5.78-4.93-15.33-2-22.65,3.13-7.88,7.95-15.18,12.85-22.07,6.1-8.56,13.61-16.43,22.57-22a45.76,45.76,0,0,1,14.55-6,32.56,32.56,0,0,1,15.69.6c7.73,2.12,14.66,6.58,20.66,11.81a92.48,92.48,0,0,1,15.52,17.81c-.76-1.13,1.06-2.18,1.81-1.06a90.08,90.08,0,0,0-21.35-22.62c-8.43-6.09-19-10.4-29.5-9.13s-20,7-27.89,13.94c-7.22,6.4-13,14.08-18.25,22.12-4.74,7.29-9.43,15.27-11,23.93a19.93,19.93,0,0,0,1,11.73,16.25,16.25,0,0,0,10.3,8.62c5.2,1.54,10.77.09,15.46-2.33s8.52-6.1,12.36-9.61,7.82-7.11,12.49-9.6c4.39-2.34,9-3.19,13.82-1.76s8.82,4.38,12.57,7.4,7.18,6.33,10.9,9.35c4,3.29,8.69,6,13.89,6.89a17.24,17.24,0,0,0,14.61-4.16c6.5-5.84,5.5-15.12,2.85-22.58C306.48,819.34,301.81,812.12,297.08,805.14Z"/><path class="cls-2" d="M295.27,806.2c.76,1.11,2.58.06,1.81-1.06S294.51,805.07,295.27,806.2Z"/><ellipse class="cls-1" cx="287.91" cy="769.85" rx="13.66" ry="13.86"/><ellipse class="cls-2" cx="287.67" cy="770.62" rx="9.71" ry="9.85"/><path class="cls-1" d="M292.12,761.29a3.44,3.44,0,1,0,3.39,3.44A3.41,3.41,0,0,0,292.12,761.29Z"/><ellipse class="cls-1" cx="212.09" cy="769.85" rx="13.66" ry="13.86"/><ellipse class="cls-2" cx="212.6" cy="770.62" rx="9.71" ry="9.85"/><path class="cls-1" d="M217.05,761.29a3.44,3.44,0,1,0,3.39,3.44A3.41,3.41,0,0,0,217.05,761.29Z"/><path class="cls-2" d="M249,805.33v22.52a1.05,1.05,0,0,0,2.1,0V805.33A1.05,1.05,0,0,0,249,805.33Z"/><path class="cls-2" d="M220.7,698.63A180.23,180.23,0,0,0,205,665.55a128.18,128.18,0,0,0-10.2-14.47,33.39,33.39,0,0,0-5.18-5.57,17,17,0,0,0-6.13-3A12.38,12.38,0,0,0,171.09,646c-4.38,4.76-6.17,10.9-6.17,17.28a36.42,36.42,0,0,0,1.4,9.57,18.55,18.55,0,0,1,.64,2.29c.12.81.26,1.62.4,2.42.31,1.81.65,3.62,1,5.43.64,3.51,1.31,6.87.47,10.41-.78,3.28-2.42,6.32-3.75,9.4a66.53,66.53,0,0,0-3.24,9,44,44,0,0,0-1.37,9.35,21.34,21.34,0,0,0,1.26,9,49.7,49.7,0,0,0,2.37,5.07,55,55,0,0,0,7.66,11.09c2.87,3.2,6.35,6.07,10.47,7.42A13.55,13.55,0,0,0,193.7,752c3.24-2,5.41-5.33,7-8.74,1.76-3.78,2.93-7.8,4.44-11.68,1.39-3.58,3.21-7.31,6.37-9.67,2.24-1.61,4.68-2.06,7.28-2.76a7.79,7.79,0,0,0,5.11-3.55c1.44-2.72.41-5.94-.42-8.66S221.69,701.39,220.7,698.63Z"/><path class="cls-2" d="M331.76,695.31a18.93,18.93,0,0,1-1-4.82,23.31,23.31,0,0,1,.56-5.45c.58-3.45,1.29-6.87,1.8-10.33a22.8,22.8,0,0,1,.69-2.27c.21-.76.39-1.53.55-2.3a37.58,37.58,0,0,0,.67-4.94c.46-6.37-1-12.89-5-17.94a13.76,13.76,0,0,0-5.64-4.43,12.77,12.77,0,0,0-6.54-.6,16,16,0,0,0-6.31,2.47,24.91,24.91,0,0,0-5.15,5A114,114,0,0,0,296,664a177.55,177.55,0,0,0-16,32.94q-1.6,4.32-3,8.71c-.93,2.93-2.17,6.16-1.15,9.23.75,2.24,2.78,3.45,4.92,4.15,1.16.37,2.36.57,3.54.87a13,13,0,0,1,4.25,2c3,2.22,4.74,5.66,6.11,9,1.51,3.72,2.65,7.58,4.22,11.27a21.89,21.89,0,0,0,6.56,9.16A13.76,13.76,0,0,0,316.64,754c4.17-.89,7.76-3.74,10.67-6.72a52.53,52.53,0,0,0,8-11,55.34,55.34,0,0,0,2.56-5.18,21.29,21.29,0,0,0,1.7-8.07,46.38,46.38,0,0,0-3.93-18.56C334.39,701.4,332.85,698.44,331.76,695.31Z"/><path class="cls-1" d="M207.54,699.34A77.13,77.13,0,0,0,197,678.08c-2.9-4.31-6-8.64-9.25-12.66-1.2-1.46-3.53-4.12-5.62-2.58-1,.74-1.42,2.55-1.51,3.69-.26,3.75,1.07,6.92,1.92,10.5a43.62,43.62,0,0,1,1.21,10.44,40,40,0,0,1-1.46,10.43c-.94,3.37-2.56,6.25-4,9.41-.56,1.24-1.16,2.44-1.77,3.63-3.09,5.9-6.6,11.33-5.87,19,.35,3.64,6.12,18.76,11.48,18.83a3.68,3.68,0,0,0,2.93-1.72,44.38,44.38,0,0,0,4.2-7.87,70.62,70.62,0,0,1,5.22-9.92A33.06,33.06,0,0,1,197,726c3.59-4,11.56-6.52,12.25-8.8a19.74,19.74,0,0,0,.6-4.74,36.9,36.9,0,0,0-.54-4.85A78.16,78.16,0,0,0,207.54,699.34Z"/><path class="cls-1" d="M320.12,707.31c-1.41-3.16-3-6-4-9.41a40,40,0,0,1-1.46-10.43A44.14,44.14,0,0,1,315.9,677c.85-3.58,2.19-6.75,1.92-10.5-.08-1.14-.5-2.95-1.51-3.69-2.09-1.54-4.41,1.12-5.62,2.58-3.3,4-6.35,8.35-9.25,12.66a77.13,77.13,0,0,0-10.52,21.26,78.16,78.16,0,0,0-1.72,8.29,36.9,36.9,0,0,0-.54,4.85,19.74,19.74,0,0,0,.6,4.74c.69,2.28,8.67,4.8,12.26,8.8a34.66,34.66,0,0,1,2.4,3.2,70.62,70.62,0,0,1,5.22,9.92,44.38,44.38,0,0,0,4.2,7.87,3.68,3.68,0,0,0,2.93,1.72c5.37-.07,11.14-15.19,11.48-18.83.73-7.63-2.78-13.06-5.86-19C321.27,709.75,320.67,708.55,320.12,707.31Z"/><path class="cls-2" d="M260.71,782.37a39.57,39.57,0,0,0-21.37,0c-3.43,1-7.19,2.55-8.84,5.8a6.53,6.53,0,0,0,.51,7,5.3,5.3,0,0,0,6.83,1.13,26.16,26.16,0,0,0,2.08-2,3,3,0,0,1,2.66-.88c1.34.36,1.82,2,1.64,3.31-.5,3.61-4.67,6.31-8.33,5.39,3,5.11,8.51,6.6,14.14,6.51,5.62.09,11.17-1.4,14.13-6.51-3.66.92-7.83-1.78-8.33-5.39-.18-1.32.3-3,1.64-3.31a3,3,0,0,1,2.66.88,26.16,26.16,0,0,0,2.08,2,5.3,5.3,0,0,0,6.83-1.13,6.53,6.53,0,0,0,.51-7C267.9,784.92,264.14,783.35,260.71,782.37Z"/><path class="cls-2" d="M214,821.26a1.92,1.92,0,1,0,1.92,1.91A1.91,1.91,0,0,0,214,821.26Z"/><circle class="cls-2" cx="208.56" cy="837.73" r="1.92"/><path class="cls-2" d="M222.75,829.75a1.92,1.92,0,1,0,1.92,1.92A1.92,1.92,0,0,0,222.75,829.75Z"/><path class="cls-2" d="M228.64,816.46a1.92,1.92,0,1,0,1.92,1.91A1.91,1.91,0,0,0,228.64,816.46Z"/><path class="cls-2" d="M286,821.26a1.92,1.92,0,1,0,1.91,1.91A1.92,1.92,0,0,0,286,821.26Z"/><circle class="cls-2" cx="291.44" cy="837.73" r="1.92"/><path class="cls-2" d="M277.25,829.75a1.92,1.92,0,1,0,1.92,1.92A1.92,1.92,0,0,0,277.25,829.75Z"/><path class="cls-2" d="M271.36,816.46a1.92,1.92,0,1,0,1.92,1.91A1.91,1.91,0,0,0,271.36,816.46Z"/><path class="cls-2" d="M978.56,535c16.5-22.72,19.91-54.61,9.08-80.6q-3.54.54-7.17,1.47A58.48,58.48,0,0,0,965,462.37a56.49,56.49,0,0,0-10.56,8.13C947,477.8,941.56,487,937,496.44c-5,10.2-9.12,20.93-10.92,32.18s-1.13,23.09,3.24,33.57c5.6,13.4,17.44,24,31.24,27.38A42.72,42.72,0,0,0,1000,579V537.7C992.46,540.69,978.56,535,978.56,535Z"/><path class="cls-2" d="M987,455.6l.9-.15-1.15-.48C986.85,455.18,986.93,455.39,987,455.6Z"/><path class="cls-2" d="M999.28,579.68l.72.68v-.68Z"/><path class="cls-2" d="M999.28,579.68h.72V577.9a1,1,0,0,0-.72.3,41.78,41.78,0,0,1-29,11.51,42.51,42.51,0,0,1-28.18-11.24,48.66,48.66,0,0,1-15.23-28.77c-2-12.63.32-25.56,4.5-37.47A151.31,151.31,0,0,1,939,494.7a110.29,110.29,0,0,1,9.29-15.51,58.25,58.25,0,0,1,29.6-21.45A68.26,68.26,0,0,1,987,455.6c-.08-.21-.16-.42-.25-.63l1.15.48-.9.15a84.67,84.67,0,0,1-.7,63.58,78,78,0,0,1-8.63,15.33,1.07,1.07,0,0,0,.61,1.54,54.8,54.8,0,0,0,6.72,2.17,32.57,32.57,0,0,0,12.6,1.18,12.47,12.47,0,0,0,1.38-.27l.66-.19c.09,0,.28,0,.35-.07v0l-.06,0,.06,0v-2.08a1.65,1.65,0,0,0-.68.11,11.93,11.93,0,0,1-2.94.61,25.8,25.8,0,0,1-6.39-.32,53.74,53.74,0,0,1-9.81-2.6c-.24.35-.48.7-.73,1-.21-.51-.41-1-.61-1.54l1,.39.32.11c12.22-17.52,16.87-39.92,13.75-61.15a81.48,81.48,0,0,0-5.41-19.47,1,1,0,0,0-1.15-.48c-12.34,1.94-23.94,7.06-33.17,15.81-8.73,8.29-14.71,19.22-19.76,30.13-5.29,11.45-9.37,23.63-10.2,36.35-.78,11.87,1.55,24.08,7.91,34.14A48.24,48.24,0,0,0,955.32,589a43.43,43.43,0,0,0,30.77-.09,42.55,42.55,0,0,0,13.91-8.57h0Z"/><path class="cls-2" d="M978.84,534c.2.51.4,1,.61,1.54.25-.34.49-.69.73-1l-.32-.11Z"/><path class="cls-1" d="M987.3,454.44c11.12,26,7.62,57.88-9.31,80.6,0,0,14.27,5.66,22,2.66V453.56A78.77,78.77,0,0,0,987.3,454.44Z"/><path class="cls-2" d="M987.58,455.45l1.2-.17c-.19-.46-.37-.92-.57-1.37Z"/><path class="cls-2" d="M978.26,534l.63,1.54c.26-.34.5-.69.75-1l-.32-.11C979,534.3,978.61,534.17,978.26,534Z"/><path class="cls-2" d="M999.29,536.84a12.36,12.36,0,0,1-3,.61,27.1,27.1,0,0,1-6.55-.32,56.53,56.53,0,0,1-10.08-2.6c-.25.35-.49.7-.75,1l-.63-1.54c.35.14.71.27,1.06.39l.32.11C992.19,517,997,494.61,993.76,473.38a80,80,0,0,0-5-18.1l-1.2.17.63-1.54c.2.45.38.91.57,1.37a85.6,85.6,0,0,1,11.22-.74v-2.06a87.84,87.84,0,0,0-13,.95c-.75.11-.87,1-.63,1.54a82.55,82.55,0,0,1-.47,64.21,76.94,76.94,0,0,1-8.85,15.33c-.44.6.06,1.32.63,1.54a56.78,56.78,0,0,0,6.89,2.17,34.33,34.33,0,0,0,12.94,1.18,13.67,13.67,0,0,0,1.42-.27l.67-.19c.1,0,.31-.05.37-.08v0l-.07,0,.07,0v-2.09A2,2,0,0,0,999.29,536.84Z"/><path class="cls-1" d="M1000,543.45c-24.48,0-44.33,14.2-44.33,31.72s19.85,31.72,44.33,31.72h0V543.45Z"/><path class="cls-2" d="M972.91,599.09c-7.37-4.16-13.79-10.74-15.71-19.2-1.85-8.15,1.45-16.24,7.11-22.09,6.76-7,16.28-10.88,25.73-12.5a59.25,59.25,0,0,1,10-.84v-2.07a59.16,59.16,0,0,0-24,5c-8,3.54-15.42,9.46-19.11,17.53A25,25,0,0,0,958.21,588c4.6,7.86,12.69,13.16,21,16.3a58.54,58.54,0,0,0,20.74,3.59v-2.09A55,55,0,0,1,972.91,599.09Z"/><path class="cls-1" d="M953.87,555.67c-7.16,10.59-22.65,33.75-8.34,44.49,7.71,5.79,17.21,2.77,24.25-2.51,8.09-6.06,15.41-15.79,25.87-18.54a15.11,15.11,0,0,1,4.35-.49V524.17C980.4,524.57,963.75,541.06,953.87,555.67Z"/><path class="cls-2" d="M1000,577.56c-5-.18-9.81,2.19-13.83,4.91-4.35,2.94-8.12,6.65-12,10.16s-8.21,7-13.38,8.65-11,1.13-15.32-2.52c-6.87-5.78-4.93-15.33-2-22.65,3.13-7.88,8-15.18,12.85-22.07,6.1-8.56,13.61-16.43,22.57-22a45.76,45.76,0,0,1,14.55-6,31,31,0,0,1,6.6-.68v-2.13a31.9,31.9,0,0,0-3.77.22c-10.59,1.29-20,7-27.89,13.94-7.22,6.4-13,14.08-18.25,22.12-4.74,7.29-9.43,15.27-11,23.93a19.93,19.93,0,0,0,1,11.73,16.25,16.25,0,0,0,10.3,8.62c5.2,1.54,10.77.09,15.46-2.33s8.52-6.1,12.36-9.61,7.82-7.11,12.49-9.6a19.08,19.08,0,0,1,9.32-2.43v-2.2Z"/><ellipse class="cls-1" cx="962.09" cy="519.85" rx="13.66" ry="13.86"/><ellipse class="cls-2" cx="962.6" cy="520.62" rx="9.71" ry="9.85"/><path class="cls-1" d="M967.05,511.29a3.44,3.44,0,1,0,3.39,3.44A3.41,3.41,0,0,0,967.05,511.29Z"/><path class="cls-2" d="M999,555.33v22.52a1,1,0,0,0,1,1V554.31A1,1,0,0,0,999,555.33Z"/><path class="cls-2" d="M970.7,448.63A180.23,180.23,0,0,0,955,415.55a128.18,128.18,0,0,0-10.2-14.47,33.39,33.39,0,0,0-5.18-5.57,17,17,0,0,0-6.13-3A12.38,12.38,0,0,0,921.09,396c-4.38,4.76-6.17,10.9-6.17,17.28a36.42,36.42,0,0,0,1.4,9.57,18.55,18.55,0,0,1,.64,2.29c.12.81.26,1.62.4,2.42.31,1.81.65,3.62,1,5.43.64,3.51,1.31,6.87.47,10.41-.78,3.28-2.42,6.32-3.75,9.4a66.53,66.53,0,0,0-3.24,9,44,44,0,0,0-1.37,9.35,21.5,21.5,0,0,0,1.26,9,49.7,49.7,0,0,0,2.37,5.07,55.33,55.33,0,0,0,7.66,11.09c2.87,3.2,6.35,6.07,10.47,7.42A13.55,13.55,0,0,0,943.7,502c3.24-2,5.41-5.33,7-8.74,1.76-3.78,2.93-7.8,4.44-11.68,1.39-3.58,3.21-7.31,6.37-9.67,2.24-1.61,4.68-2.06,7.28-2.76a7.79,7.79,0,0,0,5.11-3.55c1.44-2.72.41-5.94-.42-8.66S971.69,451.39,970.7,448.63Z"/><path class="cls-1" d="M957.54,449.34A77.13,77.13,0,0,0,947,428.08c-2.9-4.31-5.95-8.64-9.25-12.66-1.2-1.46-3.53-4.12-5.62-2.58-1,.74-1.42,2.55-1.51,3.69-.26,3.75,1.07,6.92,1.92,10.5a43.62,43.62,0,0,1,1.21,10.44,40,40,0,0,1-1.46,10.43c-.94,3.37-2.56,6.25-4,9.41-.56,1.24-1.16,2.44-1.77,3.63-3.09,5.9-6.6,11.33-5.87,19,.35,3.64,6.12,18.76,11.48,18.83a3.68,3.68,0,0,0,2.93-1.72,44.38,44.38,0,0,0,4.2-7.87,70.62,70.62,0,0,1,5.22-9.92A33.06,33.06,0,0,1,947,476c3.59-4,11.56-6.52,12.25-8.8a19.74,19.74,0,0,0,.6-4.74,36.9,36.9,0,0,0-.54-4.85A78.16,78.16,0,0,0,957.54,449.34Z"/><path class="cls-2" d="M989.34,532.37c-3.43,1-7.19,2.55-8.84,5.8a6.53,6.53,0,0,0,.51,7,5.3,5.3,0,0,0,6.83,1.13,26.16,26.16,0,0,0,2.08-2,3,3,0,0,1,2.66-.88c1.34.36,1.82,2,1.64,3.31-.5,3.61-4.67,6.31-8.33,5.39,3,5.1,8.49,6.59,14.11,6.51v-27.7A39.29,39.29,0,0,0,989.34,532.37Z"/><path class="cls-2" d="M964,571.26a1.92,1.92,0,1,0,1.92,1.91A1.91,1.91,0,0,0,964,571.26Z"/><circle class="cls-2" cx="958.56" cy="587.73" r="1.92"/><path class="cls-2" d="M972.75,579.75a1.92,1.92,0,1,0,1.92,1.92A1.92,1.92,0,0,0,972.75,579.75Z"/><path class="cls-2" d="M978.64,566.46a1.92,1.92,0,1,0,1.92,1.91A1.91,1.91,0,0,0,978.64,566.46Z"/><path class="cls-2" d="M563.05,496.44c-4.6-9.44-10-18.64-17.43-25.94a56.42,56.42,0,0,0-10.55-8.13,58.76,58.76,0,0,0-15.52-6.46c-2.43-.62-4.81-1.11-7.18-1.47-10.82,26-7.41,57.88,9.08,80.6,0,0-13.91,5.66-21.44,2.66-7.54,3-21.45-2.66-21.45-2.66,16.5-22.72,19.91-54.61,9.08-80.6q-3.54.54-7.17,1.47A58.48,58.48,0,0,0,465,462.37a56.49,56.49,0,0,0-10.56,8.13C447,477.8,441.56,487,437,496.44c-5,10.2-9.12,20.93-10.92,32.18s-1.13,23.09,3.24,33.57c5.6,13.4,17.44,24,31.24,27.38A42.75,42.75,0,0,0,500,578.94a42.73,42.73,0,0,0,39.48,10.63c13.8-3.41,25.64-14,31.23-27.38,4.37-10.48,5-22.32,3.24-33.57S568,506.64,563.05,496.44Z"/><path class="cls-2" d="M573,528.89c.21,1.34,2.18.77,2-.55S572.77,527.57,573,528.89Z"/><path class="cls-2" d="M487,455.6l.9-.15-1.15-.48C486.85,455.18,486.93,455.39,487,455.6Z"/><path class="cls-2" d="M513,455.6l.26-.63-1.16.48Z"/><path class="cls-2" d="M520.57,535.57c.2-.51.4-1,.61-1.54-.44.18-.89.34-1.34.51C520.08,534.88,520.32,535.23,520.57,535.57Z"/><path class="cls-2" d="M500,580.36l.72-.68h-1.45C499.52,579.91,499.76,580.14,500,580.36Z"/><path class="cls-2" d="M573,528.89c1.91,12.17.92,25.11-4.72,36.15a46.73,46.73,0,0,1-21.83,21,41.63,41.63,0,0,1-45.7-7.85,1,1,0,0,0-1.45,0,41.78,41.78,0,0,1-29,11.51,42.51,42.51,0,0,1-28.18-11.24,48.66,48.66,0,0,1-15.23-28.77c-2-12.63.32-25.56,4.5-37.47A151.31,151.31,0,0,1,439,494.7a110.29,110.29,0,0,1,9.29-15.51,58.25,58.25,0,0,1,29.6-21.45A68.26,68.26,0,0,1,487,455.6c-.08-.21-.16-.42-.25-.63l1.15.48-.9.15a84.67,84.67,0,0,1-.7,63.58,78,78,0,0,1-8.63,15.33,1.07,1.07,0,0,0,.61,1.54,54.8,54.8,0,0,0,6.72,2.17,32.59,32.59,0,0,0,12.6,1.18,12.47,12.47,0,0,0,1.38-.27l.66-.19c.15-.05.55-.05.29-.15a12.67,12.67,0,0,0,3,.68,25.46,25.46,0,0,0,6.35-.12,53.85,53.85,0,0,0,10.82-2.68c.55-.2,1.1-.4,1.64-.62a1.07,1.07,0,0,0,.61-1.54c-12.81-17.73-17.67-40.84-14-62.51A79.5,79.5,0,0,1,513,455.6l-.9-.15,1.16-.48-.26.63c12.15,2.08,23.51,7.25,32.41,16.15,8.57,8.57,14.41,19.71,19.34,30.77A107.13,107.13,0,0,1,573,528.89c-.21-1.32,1.76-1.89,2-.55-2-12.56-6.91-24.45-12.64-35.67-5.5-10.79-12.4-20.92-22.1-28.13a62,62,0,0,0-27.57-11.11,1,1,0,0,0-1.15.48,86.91,86.91,0,0,0-.52,64,80,80,0,0,0,8.87,16.67c.45-.17.9-.33,1.34-.51-.21.51-.41,1-.61,1.54-.25-.34-.49-.69-.73-1-1.76.64-3.57,1.18-5.38,1.65-4,1-8.36,1.87-12.44,1-.95-.2-1.75-.71-2.7-.37a11.93,11.93,0,0,1-2.94.61,25.8,25.8,0,0,1-6.39-.32,53.74,53.74,0,0,1-9.81-2.6c-.24.35-.48.7-.73,1-.21-.51-.41-1-.61-1.54l1,.39.32.11c12.22-17.52,16.87-39.92,13.75-61.15a81.48,81.48,0,0,0-5.41-19.47,1,1,0,0,0-1.15-.48c-12.34,1.94-23.94,7.06-33.17,15.81-8.73,8.29-14.71,19.22-19.76,30.13-5.29,11.45-9.37,23.63-10.2,36.35-.78,11.87,1.55,24.08,7.91,34.14A48.24,48.24,0,0,0,455.32,589a43.43,43.43,0,0,0,30.77-.09A42.56,42.56,0,0,0,500,580.36c-.25-.22-.49-.45-.73-.68h1.45l-.72.68a43.54,43.54,0,0,0,56.56,1.94,49.49,49.49,0,0,0,15.82-21.57c3.88-10.25,4.25-21.63,2.56-32.39C575.16,529.66,573.19,530.23,573,528.89Z"/><path class="cls-2" d="M478.84,534c.2.51.4,1,.61,1.54.25-.34.49-.69.73-1l-.32-.11Z"/><path class="cls-1" d="M512.7,454.44a92.08,92.08,0,0,0-25.4,0c11.12,26,7.62,57.88-9.31,80.6,0,0,14.27,5.66,22,2.66,7.74,3,22-2.66,22-2.66C505.08,512.32,501.58,480.43,512.7,454.44Z"/><path class="cls-2" d="M521.11,535.57l.63-1.54-1.37.51C520.61,534.88,520.85,535.23,521.11,535.57Z"/><path class="cls-2" d="M512.5,453.36l.36.05A.9.9,0,0,0,512.5,453.36Z"/><path class="cls-2" d="M487.58,455.45l1.2-.17c-.19-.46-.37-.92-.57-1.37Z"/><path class="cls-2" d="M478.26,534l.63,1.54c.26-.34.5-.69.75-1l-.32-.11C479,534.3,478.61,534.17,478.26,534Z"/><path class="cls-2" d="M508.58,472a77.67,77.67,0,0,1,5-17,1.05,1.05,0,0,0,.09-.37,1.15,1.15,0,0,1-1.27.85l-1.2-.17a84.91,84.91,0,0,0,0,62.59,78.67,78.67,0,0,0,9.11,16.67l1.37-.51-.63,1.54c-.26-.34-.5-.69-.74-1-1.82.64-3.67,1.18-5.53,1.65-4.08,1-8.59,1.87-12.78,1-1-.2-1.79-.71-2.77-.37a12.36,12.36,0,0,1-3,.61,27.1,27.1,0,0,1-6.55-.32,56.53,56.53,0,0,1-10.08-2.6c-.25.35-.49.7-.75,1l-.63-1.54c.35.14.71.27,1.06.39l.32.11C492.19,517,497,494.61,493.76,473.38a80,80,0,0,0-5-18.1l-1.2.17.63-1.54c.2.45.38.91.57,1.37a86,86,0,0,1,22.44,0c.19-.46.37-.92.57-1.37a.83.83,0,0,1,.71-.55,88.72,88.72,0,0,0-25.47.07c-.75.11-.87,1-.63,1.54a82.55,82.55,0,0,1-.47,64.21,76.94,76.94,0,0,1-8.85,15.33c-.44.6.06,1.32.63,1.54a56.78,56.78,0,0,0,6.89,2.17,34.33,34.33,0,0,0,12.94,1.18,13.67,13.67,0,0,0,1.42-.27l.67-.19c.16-.05.57-.05.3-.15a13.32,13.32,0,0,0,3.05.68,26.84,26.84,0,0,0,6.52-.12,56.42,56.42,0,0,0,11.11-2.68c.57-.2,1.13-.4,1.68-.62s1.07-.94.63-1.54C509.77,516.78,504.78,493.67,508.58,472Z"/><path class="cls-2" d="M513,453.43l-.11,0a1.21,1.21,0,0,1,.83,1.19A.85.85,0,0,0,513,453.43Z"/><path class="cls-2" d="M512.86,453.41l-.36-.05a.83.83,0,0,0-.71.55c-.2.45-.38.91-.57,1.37l1.2.17a1.15,1.15,0,0,0,1.27-.85A1.21,1.21,0,0,0,512.86,453.41Z"/><ellipse class="cls-1" cx="499.97" cy="575.17" rx="44.33" ry="31.72"/><path class="cls-2" d="M534.42,553.82c-7.6-6.41-17.36-9.81-27.13-11A59.88,59.88,0,0,0,476,547.34c-8,3.54-15.42,9.46-19.11,17.53A25,25,0,0,0,458.21,588c4.6,7.86,12.69,13.16,21.05,16.3a61,61,0,0,0,31.83,2.6c9.45-1.67,18.79-5.75,25.66-12.55,5.16-5.1,8.57-11.9,8.61-19.22a1.05,1.05,0,0,1-2.1,0c0,8.49-5,15.85-11.59,20.87-8.07,6.16-18.3,9.14-28.33,9.71a55.82,55.82,0,0,1-30.43-6.66c-7.37-4.16-13.79-10.74-15.71-19.2-1.85-8.15,1.45-16.24,7.11-22.09,6.76-7,16.28-10.88,25.73-12.5a58.56,58.56,0,0,1,31.75,3.38c8.14,3.32,15.75,9.12,19.47,17.25a22.65,22.65,0,0,1,2,9.24,1.05,1.05,0,0,1,2.1,0C545.31,566.68,540.78,559.17,534.42,553.82Z"/><path class="cls-2" d="M543.26,575.17a1.05,1.05,0,0,0,2.1,0A1.05,1.05,0,0,0,543.26,575.17Z"/><path class="cls-1" d="M500,524.17c-19.61.38-36.27,16.88-46.16,31.5-7.16,10.59-22.65,33.75-8.34,44.49,7.71,5.79,17.21,2.77,24.25-2.51,8.09-6.06,15.41-15.79,25.87-18.54,13.12-3.46,25.46,11.68,34.62,18.54,7,5.28,16.54,8.3,24.25,2.51,14.31-10.74-1.18-33.9-8.34-44.49C536.29,541.05,519.63,524.55,500,524.17Z"/><path class="cls-2" d="M547.08,555.14c.77,1.12-1.05,2.17-1.81,1.06,4.72,7,9.41,14.19,12.21,22.19,1.34,3.86,2.29,8.09,1.67,12.19a13.64,13.64,0,0,1-6.92,9.83c-4.9,2.85-10.82,2-15.76-.23-4.47-2.06-8.14-5.36-11.79-8.58-6.92-6.1-14.91-13.7-24.69-14-5-.18-9.81,2.19-13.83,4.91-4.35,2.94-8.12,6.65-12,10.16s-8.21,7-13.38,8.65-11,1.13-15.32-2.52c-6.87-5.78-4.93-15.33-2-22.65,3.13-7.88,7.95-15.18,12.85-22.07,6.1-8.56,13.61-16.43,22.57-22a45.76,45.76,0,0,1,14.55-6,32.56,32.56,0,0,1,15.69.6c7.73,2.12,14.66,6.58,20.66,11.81a92.48,92.48,0,0,1,15.52,17.81c-.76-1.13,1.06-2.18,1.81-1.06a90.08,90.08,0,0,0-21.35-22.62c-8.43-6.09-19-10.4-29.5-9.13s-20,7-27.89,13.94c-7.22,6.4-13,14.08-18.25,22.12-4.74,7.29-9.43,15.27-11,23.93a19.93,19.93,0,0,0,1,11.73,16.25,16.25,0,0,0,10.3,8.62c5.2,1.54,10.77.09,15.46-2.33s8.52-6.1,12.36-9.61,7.82-7.11,12.49-9.6c4.39-2.34,9-3.19,13.82-1.76s8.82,4.38,12.57,7.4,7.18,6.33,10.9,9.35c4,3.29,8.69,6,13.89,6.89a17.24,17.24,0,0,0,14.61-4.16c6.5-5.84,5.5-15.12,2.85-22.58C556.48,569.34,551.81,562.12,547.08,555.14Z"/><path class="cls-2" d="M545.27,556.2c.76,1.11,2.58.06,1.81-1.06S544.51,555.07,545.27,556.2Z"/><ellipse class="cls-1" cx="537.91" cy="519.85" rx="13.66" ry="13.86"/><ellipse class="cls-2" cx="537.67" cy="520.62" rx="9.71" ry="9.85"/><path class="cls-1" d="M542.12,511.29a3.44,3.44,0,1,0,3.39,3.44A3.41,3.41,0,0,0,542.12,511.29Z"/><ellipse class="cls-1" cx="462.09" cy="519.85" rx="13.66" ry="13.86"/><ellipse class="cls-2" cx="462.6" cy="520.62" rx="9.71" ry="9.85"/><path class="cls-1" d="M467.05,511.29a3.44,3.44,0,1,0,3.39,3.44A3.41,3.41,0,0,0,467.05,511.29Z"/><path class="cls-2" d="M499,555.33v22.52a1.05,1.05,0,0,0,2.1,0V555.33A1.05,1.05,0,0,0,499,555.33Z"/><path class="cls-2" d="M470.7,448.63A180.23,180.23,0,0,0,455,415.55a128.18,128.18,0,0,0-10.2-14.47,33.39,33.39,0,0,0-5.18-5.57,17,17,0,0,0-6.13-3A12.38,12.38,0,0,0,421.09,396c-4.38,4.76-6.17,10.9-6.17,17.28a36.42,36.42,0,0,0,1.4,9.57,18.55,18.55,0,0,1,.64,2.29c.12.81.26,1.62.4,2.42.31,1.81.65,3.62,1,5.43.64,3.51,1.31,6.87.47,10.41-.78,3.28-2.42,6.32-3.75,9.4a66.53,66.53,0,0,0-3.24,9,44,44,0,0,0-1.37,9.35,21.34,21.34,0,0,0,1.26,9,49.7,49.7,0,0,0,2.37,5.07,55.33,55.33,0,0,0,7.66,11.09c2.87,3.2,6.35,6.07,10.47,7.42A13.55,13.55,0,0,0,443.7,502c3.24-2,5.41-5.33,7-8.74,1.76-3.78,2.93-7.8,4.44-11.68,1.39-3.58,3.21-7.31,6.37-9.67,2.24-1.61,4.68-2.06,7.28-2.76a7.79,7.79,0,0,0,5.11-3.55c1.44-2.72.41-5.94-.42-8.66S471.69,451.39,470.7,448.63Z"/><path class="cls-2" d="M581.76,445.31a18.93,18.93,0,0,1-1-4.82,23.31,23.31,0,0,1,.56-5.45c.58-3.45,1.29-6.87,1.8-10.33a22.8,22.8,0,0,1,.69-2.27c.21-.76.39-1.53.55-2.3a37.58,37.58,0,0,0,.67-4.94c.46-6.36-1-12.89-5-17.94a13.76,13.76,0,0,0-5.64-4.43,12.77,12.77,0,0,0-6.54-.6,16,16,0,0,0-6.31,2.47,24.91,24.91,0,0,0-5.15,5A114,114,0,0,0,546,414a177.55,177.55,0,0,0-16,32.94q-1.6,4.32-3,8.71c-.93,2.93-2.17,6.16-1.15,9.23.75,2.24,2.78,3.45,4.92,4.15,1.16.37,2.36.57,3.54.87a13,13,0,0,1,4.25,2c3,2.22,4.74,5.66,6.11,9,1.51,3.72,2.65,7.58,4.22,11.27a21.89,21.89,0,0,0,6.56,9.16A13.76,13.76,0,0,0,566.64,504c4.17-.89,7.76-3.74,10.67-6.72a52.53,52.53,0,0,0,8-11,55.34,55.34,0,0,0,2.56-5.18,21.29,21.29,0,0,0,1.7-8.07,46.38,46.38,0,0,0-3.93-18.56C584.39,451.4,582.85,448.44,581.76,445.31Z"/><path class="cls-1" d="M457.54,449.34A77.13,77.13,0,0,0,447,428.08c-2.9-4.31-5.95-8.64-9.25-12.66-1.2-1.46-3.53-4.12-5.62-2.58-1,.74-1.42,2.55-1.51,3.69-.26,3.75,1.07,6.92,1.92,10.5a43.62,43.62,0,0,1,1.21,10.44,40,40,0,0,1-1.46,10.43c-.94,3.37-2.56,6.25-4,9.41-.56,1.24-1.16,2.44-1.77,3.63-3.09,5.9-6.6,11.33-5.87,19,.35,3.64,6.12,18.76,11.48,18.83a3.68,3.68,0,0,0,2.93-1.72,44.38,44.38,0,0,0,4.2-7.87,70.62,70.62,0,0,1,5.22-9.92A33.06,33.06,0,0,1,447,476c3.59-4,11.56-6.52,12.25-8.8a19.74,19.74,0,0,0,.6-4.74,36.9,36.9,0,0,0-.54-4.85A78.16,78.16,0,0,0,457.54,449.34Z"/><path class="cls-1" d="M570.12,457.31c-1.41-3.16-3-6-4-9.41a40,40,0,0,1-1.46-10.43A44.14,44.14,0,0,1,565.9,427c.85-3.58,2.19-6.75,1.92-10.5-.08-1.14-.5-2.95-1.51-3.69-2.09-1.54-4.41,1.12-5.62,2.58-3.3,4-6.35,8.35-9.25,12.66a77.13,77.13,0,0,0-10.52,21.26,78.16,78.16,0,0,0-1.72,8.29,36.9,36.9,0,0,0-.54,4.85,19.74,19.74,0,0,0,.6,4.74c.69,2.28,8.67,4.8,12.26,8.8a34.66,34.66,0,0,1,2.4,3.2,70.62,70.62,0,0,1,5.22,9.92,44.38,44.38,0,0,0,4.2,7.87,3.68,3.68,0,0,0,2.93,1.72c5.37-.07,11.14-15.19,11.48-18.83.73-7.63-2.78-13.06-5.86-19C571.27,459.75,570.67,458.55,570.12,457.31Z"/><path class="cls-2" d="M510.71,532.37a39.57,39.57,0,0,0-21.37,0c-3.43,1-7.19,2.55-8.84,5.8a6.53,6.53,0,0,0,.51,7,5.3,5.3,0,0,0,6.83,1.13,26.16,26.16,0,0,0,2.08-2,3,3,0,0,1,2.66-.88c1.34.36,1.82,2,1.64,3.31-.5,3.61-4.67,6.31-8.33,5.39,3,5.11,8.51,6.6,14.14,6.51,5.62.09,11.17-1.4,14.13-6.51-3.66.92-7.83-1.78-8.33-5.39-.18-1.32.3-3,1.64-3.31a3,3,0,0,1,2.66.88,26.16,26.16,0,0,0,2.08,2,5.3,5.3,0,0,0,6.83-1.13,6.53,6.53,0,0,0,.51-7C517.9,534.92,514.14,533.35,510.71,532.37Z"/><path class="cls-2" d="M464,571.26a1.92,1.92,0,1,0,1.92,1.91A1.91,1.91,0,0,0,464,571.26Z"/><circle class="cls-2" cx="458.56" cy="587.73" r="1.92"/><path class="cls-2" d="M472.75,579.75a1.92,1.92,0,1,0,1.92,1.92A1.92,1.92,0,0,0,472.75,579.75Z"/><path class="cls-2" d="M478.64,566.46a1.92,1.92,0,1,0,1.92,1.91A1.91,1.91,0,0,0,478.64,566.46Z"/><path class="cls-2" d="M536,571.26a1.92,1.92,0,1,0,1.91,1.91A1.92,1.92,0,0,0,536,571.26Z"/><circle class="cls-2" cx="541.44" cy="587.73" r="1.92"/><path class="cls-2" d="M527.25,579.75a1.92,1.92,0,1,0,1.92,1.92A1.92,1.92,0,0,0,527.25,579.75Z"/><path class="cls-2" d="M521.36,566.46a1.92,1.92,0,1,0,1.92,1.91A1.91,1.91,0,0,0,521.36,566.46Z"/><path class="cls-2" d="M39.49,589.57c13.8-3.41,25.64-14,31.23-27.38,4.37-10.48,5-22.32,3.24-33.57s-5.95-22-10.91-32.18c-4.6-9.44-10-18.64-17.43-25.94a56.42,56.42,0,0,0-10.55-8.13,58.76,58.76,0,0,0-15.52-6.46c-2.43-.62-4.81-1.11-7.18-1.47C1.55,480.43,5,512.32,21.45,535c0,0-13.91,5.66-21.44,2.66H0V579H0A42.73,42.73,0,0,0,39.49,589.57Z"/><path class="cls-2" d="M73,528.89c.21,1.34,2.18.77,2-.55S72.77,527.57,73,528.89Z"/><path class="cls-2" d="M13,455.6l.26-.63-1.16.48Z"/><path class="cls-2" d="M20.57,535.57c.2-.51.4-1,.61-1.54-.44.18-.89.34-1.34.51C20.08,534.88,20.32,535.23,20.57,535.57Z"/><path class="cls-2" d="M.73,579.68H0v.68H0Z"/><polygon class="cls-2" points="0 580.36 0 580.37 0.01 580.37 0 580.36"/><path class="cls-2" d="M0,538.82v0S0,538.84,0,538.82Z"/><path class="cls-2" d="M2.91,539.47a25.46,25.46,0,0,0,6.35-.12,53.85,53.85,0,0,0,10.82-2.68c.55-.2,1.1-.4,1.64-.62a1.07,1.07,0,0,0,.61-1.54C9.52,516.78,4.66,493.67,8.37,472A79.5,79.5,0,0,1,13,455.6l-.9-.15,1.16-.48-.26.63c12.15,2.08,23.51,7.25,32.41,16.15,8.57,8.57,14.41,19.71,19.34,30.77A107.13,107.13,0,0,1,73,528.89c-.21-1.32,1.76-1.89,2-.55-2-12.56-6.91-24.45-12.64-35.67-5.5-10.79-12.4-20.92-22.1-28.13a62,62,0,0,0-27.57-11.11,1,1,0,0,0-1.15.48,86.91,86.91,0,0,0-.52,64,80,80,0,0,0,8.87,16.67c.45-.17.9-.33,1.34-.51-.21.51-.41,1-.61,1.54-.25-.34-.49-.69-.73-1-1.76.64-3.57,1.18-5.38,1.65-4,1-8.36,1.87-12.44,1a10.71,10.71,0,0,0-2-.48v2.08A12.65,12.65,0,0,0,2.91,539.47Z"/><path class="cls-2" d="M73,528.89c1.91,12.17.92,25.11-4.72,36.15a46.73,46.73,0,0,1-21.83,21A41.63,41.63,0,0,1,.73,578.2a1,1,0,0,0-.73-.3v1.78H.73l-.72.68a43.54,43.54,0,0,0,56.56,1.94,49.49,49.49,0,0,0,15.82-21.57c3.88-10.25,4.25-21.63,2.56-32.39C75.16,529.66,73.19,530.23,73,528.89Z"/><path class="cls-1" d="M22,535c-16.93-22.72-20.43-54.61-9.31-80.6A78.77,78.77,0,0,0,0,453.56V537.7C7.74,540.7,22,535,22,535Z"/><path class="cls-2" d="M21.11,535.57l.63-1.54-1.37.51C20.61,534.88,20.85,535.23,21.11,535.57Z"/><path class="cls-2" d="M12.5,453.36l.36.05A.9.9,0,0,0,12.5,453.36Z"/><path class="cls-2" d="M0,538.82v0S0,538.84,0,538.82Z"/><path class="cls-2" d="M11.26,517.87a78.67,78.67,0,0,0,9.11,16.67l1.37-.51-.63,1.54c-.26-.34-.5-.69-.74-1-1.82.64-3.67,1.18-5.53,1.65-4.08,1-8.59,1.87-12.78,1A11.79,11.79,0,0,0,0,536.72v2.09a13.24,13.24,0,0,0,3,.66,26.84,26.84,0,0,0,6.52-.12,56.42,56.42,0,0,0,11.11-2.68c.57-.2,1.13-.4,1.68-.62s1.07-.94.63-1.54C9.77,516.78,4.78,493.67,8.58,472a77.67,77.67,0,0,1,5-17,1.05,1.05,0,0,0,.09-.37,1.15,1.15,0,0,1-1.27.85l-1.2-.17A84.91,84.91,0,0,0,11.26,517.87Z"/><path class="cls-2" d="M11.22,455.28c.19-.46.37-.92.57-1.37a.83.83,0,0,1,.71-.55A88.41,88.41,0,0,0,0,452.48v2.06A85.6,85.6,0,0,1,11.22,455.28Z"/><path class="cls-2" d="M13,453.43l-.11,0a1.21,1.21,0,0,1,.83,1.19A.85.85,0,0,0,13,453.43Z"/><path class="cls-2" d="M12.86,453.41l-.36-.05a.83.83,0,0,0-.71.55c-.2.45-.38.91-.57,1.37l1.2.17a1.15,1.15,0,0,0,1.27-.85A1.21,1.21,0,0,0,12.86,453.41Z"/><path class="cls-1" d="M44.31,575.17c0-17.51-19.84-31.71-44.31-31.72v63.44C24.47,606.87,44.31,592.68,44.31,575.17Z"/><path class="cls-2" d="M21.79,548.68c8.14,3.32,15.75,9.12,19.47,17.25a22.65,22.65,0,0,1,2,9.24,1.05,1.05,0,0,1,2.1,0c0-8.49-4.58-16-10.94-21.35-7.6-6.41-17.36-9.81-27.13-11A59.07,59.07,0,0,0,0,542.39v2.07A57.93,57.93,0,0,1,21.79,548.68Z"/><path class="cls-2" d="M36.75,594.39c5.16-5.1,8.57-11.9,8.61-19.22a1.05,1.05,0,0,1-2.1,0c0,8.49-5,15.85-11.59,20.87-8.07,6.16-18.3,9.14-28.33,9.71-1.11.06-2.22.08-3.34.09v2.09a64.14,64.14,0,0,0,11.09-1C20.54,605.27,29.88,601.19,36.75,594.39Z"/><path class="cls-2" d="M43.26,575.17a1.05,1.05,0,0,0,2.1,0A1.05,1.05,0,0,0,43.26,575.17Z"/><path class="cls-1" d="M54.52,600.16c14.31-10.74-1.18-33.9-8.34-44.49C36.29,541.05,19.63,524.55,0,524.17H0v54.45c11.48.31,22.13,12.94,30.27,19C37.31,602.93,46.81,606,54.52,600.16Z"/><path class="cls-2" d="M17.07,587.83c3.73,3,7.18,6.33,10.9,9.35,4.05,3.29,8.69,6,13.89,6.89a17.24,17.24,0,0,0,14.61-4.16c6.5-5.84,5.5-15.12,2.85-22.58-2.84-8-7.51-15.21-12.24-22.19.77,1.12-1,2.17-1.81,1.06,4.72,7,9.41,14.19,12.21,22.19,1.34,3.86,2.29,8.09,1.67,12.19a13.64,13.64,0,0,1-6.92,9.83c-4.9,2.85-10.82,2-15.76-.23-4.47-2.06-8.14-5.36-11.79-8.58-6.92-6.1-14.9-13.69-24.68-14v2.2a16.52,16.52,0,0,1,4.5.67C9.18,581.81,13.32,584.81,17.07,587.83Z"/><path class="cls-2" d="M9.09,526.58c7.73,2.12,14.66,6.58,20.66,11.81A92.48,92.48,0,0,1,45.27,556.2c-.76-1.13,1.06-2.18,1.81-1.06a90.08,90.08,0,0,0-21.35-22.62C18.3,527.16,9.26,523.18,0,523.17v2.13A34.57,34.57,0,0,1,9.09,526.58Z"/><path class="cls-2" d="M45.27,556.2c.76,1.11,2.58.06,1.81-1.06S44.51,555.07,45.27,556.2Z"/><ellipse class="cls-1" cx="37.91" cy="519.85" rx="13.66" ry="13.86"/><ellipse class="cls-2" cx="37.67" cy="520.62" rx="9.71" ry="9.85"/><path class="cls-1" d="M42.12,511.29a3.44,3.44,0,1,0,3.39,3.44A3.41,3.41,0,0,0,42.12,511.29Z"/><path class="cls-2" d="M1.05,577.85V555.33a1,1,0,0,0-1-1v24.56A1,1,0,0,0,1.05,577.85Z"/><path class="cls-2" d="M81.76,445.31a18.93,18.93,0,0,1-1-4.82,23.31,23.31,0,0,1,.56-5.45c.58-3.45,1.29-6.87,1.8-10.33a22.8,22.8,0,0,1,.69-2.27c.21-.76.39-1.53.55-2.3A37.58,37.58,0,0,0,85,415.2c.46-6.36-1-12.89-5-17.94a13.76,13.76,0,0,0-5.64-4.43,12.77,12.77,0,0,0-6.54-.6,16,16,0,0,0-6.31,2.47,24.91,24.91,0,0,0-5.15,5A114,114,0,0,0,46,414a177.55,177.55,0,0,0-16,32.94q-1.61,4.32-3,8.71c-.93,2.93-2.17,6.16-1.15,9.23.75,2.24,2.78,3.45,4.92,4.15,1.16.37,2.36.57,3.54.87a13,13,0,0,1,4.25,2c3,2.22,4.74,5.66,6.11,9,1.51,3.72,2.65,7.58,4.22,11.27a21.89,21.89,0,0,0,6.56,9.16A13.76,13.76,0,0,0,66.64,504c4.17-.89,7.76-3.74,10.67-6.72a52.53,52.53,0,0,0,8-11,55.34,55.34,0,0,0,2.56-5.18,21.29,21.29,0,0,0,1.7-8.07,46.38,46.38,0,0,0-3.93-18.56C84.39,451.4,82.85,448.44,81.76,445.31Z"/><path class="cls-1" d="M70.12,457.31c-1.41-3.16-3-6-4-9.41a40,40,0,0,1-1.46-10.43A44.14,44.14,0,0,1,65.9,427c.85-3.58,2.19-6.75,1.92-10.5-.08-1.14-.5-2.95-1.51-3.69-2.09-1.54-4.41,1.12-5.62,2.58-3.3,4-6.35,8.35-9.25,12.66a77.13,77.13,0,0,0-10.52,21.26,78.16,78.16,0,0,0-1.72,8.29,36.9,36.9,0,0,0-.54,4.85,19.74,19.74,0,0,0,.6,4.74c.69,2.28,8.67,4.8,12.26,8.8a34.66,34.66,0,0,1,2.4,3.2,70.62,70.62,0,0,1,5.22,9.92,44.38,44.38,0,0,0,4.2,7.87,3.68,3.68,0,0,0,2.93,1.72c5.37-.07,11.14-15.19,11.48-18.83.73-7.63-2.78-13.06-5.86-19C71.27,459.75,70.67,458.55,70.12,457.31Z"/><path class="cls-2" d="M14.16,552.1c-3.66.92-7.83-1.78-8.33-5.39-.18-1.32.3-3,1.64-3.31a3,3,0,0,1,2.66.88,26.16,26.16,0,0,0,2.08,2A5.3,5.3,0,0,0,19,545.15a6.53,6.53,0,0,0,.51-7c-1.65-3.25-5.41-4.82-8.84-5.8A39.89,39.89,0,0,0,0,530.9H0v27.7H0C5.65,558.7,11.2,557.21,14.16,552.1Z"/><path class="cls-2" d="M36,571.26a1.92,1.92,0,1,0,1.91,1.91A1.92,1.92,0,0,0,36,571.26Z"/><circle class="cls-2" cx="41.44" cy="587.73" r="1.92"/><path class="cls-2" d="M27.25,579.75a1.92,1.92,0,1,0,1.92,1.92A1.92,1.92,0,0,0,27.25,579.75Z"/><path class="cls-2" d="M21.36,566.46a1.92,1.92,0,1,0,1.92,1.91A1.91,1.91,0,0,0,21.36,566.46Z"/><path class="cls-2" d="M813.05,246.44c-4.6-9.44-10-18.64-17.43-25.94a56.42,56.42,0,0,0-10.55-8.13,58.76,58.76,0,0,0-15.52-6.46c-2.43-.62-4.81-1.11-7.18-1.47-10.82,26-7.41,57.88,9.08,80.6,0,0-13.91,5.66-21.44,2.66-7.54,3-21.45-2.66-21.45-2.66,16.5-22.72,19.91-54.61,9.08-80.6q-3.54.54-7.17,1.47A58.48,58.48,0,0,0,715,212.37a56.49,56.49,0,0,0-10.56,8.13C697,227.8,691.56,237,687,246.44c-5,10.2-9.12,20.93-10.92,32.18s-1.13,23.09,3.24,33.57c5.6,13.4,17.44,24,31.24,27.38A42.75,42.75,0,0,0,750,328.94a42.73,42.73,0,0,0,39.48,10.63c13.8-3.41,25.64-14,31.23-27.38,4.37-10.48,5-22.32,3.24-33.57S818,256.64,813.05,246.44Z"/><path class="cls-2" d="M823,278.89c.21,1.34,2.18.77,2-.55S822.77,277.57,823,278.89Z"/><path class="cls-2" d="M737,205.6l.9-.15-1.15-.48C736.85,205.18,736.93,205.39,737,205.6Z"/><path class="cls-2" d="M763,205.6l.26-.63-1.16.48Z"/><path class="cls-2" d="M770.57,285.57c.2-.51.4-1,.61-1.54-.44.18-.89.34-1.34.51C770.08,284.88,770.32,285.23,770.57,285.57Z"/><path class="cls-2" d="M750,330.36l.72-.68h-1.45C749.52,329.91,749.76,330.14,750,330.36Z"/><path class="cls-2" d="M823,278.89c1.91,12.17.92,25.11-4.72,36.15a46.73,46.73,0,0,1-21.83,21,41.63,41.63,0,0,1-45.7-7.85,1,1,0,0,0-1.45,0,41.78,41.78,0,0,1-29,11.51,42.51,42.51,0,0,1-28.18-11.24,48.66,48.66,0,0,1-15.23-28.77c-2-12.63.32-25.56,4.5-37.47A151.31,151.31,0,0,1,689,244.7a110.29,110.29,0,0,1,9.29-15.51,58.25,58.25,0,0,1,29.6-21.45A68.26,68.26,0,0,1,737,205.6c-.08-.21-.16-.42-.25-.63l1.15.48-.9.15a84.67,84.67,0,0,1-.7,63.58,78,78,0,0,1-8.63,15.33,1.07,1.07,0,0,0,.61,1.54,54.8,54.8,0,0,0,6.72,2.17,32.57,32.57,0,0,0,12.6,1.18,12.47,12.47,0,0,0,1.38-.27l.66-.19c.15-.05.55-.05.29-.15a12.67,12.67,0,0,0,3,.68,25.46,25.46,0,0,0,6.35-.12,53.2,53.2,0,0,0,10.82-2.69c.55-.19,1.1-.39,1.64-.61a1.07,1.07,0,0,0,.61-1.54c-12.81-17.73-17.67-40.84-14-62.51A79.5,79.5,0,0,1,763,205.6l-.9-.15,1.16-.48-.26.63c12.15,2.08,23.51,7.25,32.41,16.15,8.57,8.57,14.41,19.71,19.34,30.77A107.13,107.13,0,0,1,823,278.89c-.21-1.32,1.76-1.89,2-.55-2-12.56-6.91-24.45-12.64-35.67-5.5-10.79-12.4-20.92-22.1-28.13a62,62,0,0,0-27.57-11.11,1,1,0,0,0-1.15.48,86.91,86.91,0,0,0-.52,64,80,80,0,0,0,8.87,16.67c.45-.17.9-.33,1.34-.51-.21.51-.41,1-.61,1.54-.25-.34-.49-.69-.73-1-1.76.64-3.57,1.18-5.38,1.65-4,1-8.36,1.87-12.44,1-.95-.2-1.75-.71-2.7-.37a11.93,11.93,0,0,1-2.94.61,25.8,25.8,0,0,1-6.39-.32,53.74,53.74,0,0,1-9.81-2.6c-.24.35-.48.7-.73,1-.21-.51-.41-1-.61-1.54q.51.21,1,.39l.32.11c12.22-17.52,16.87-39.92,13.75-61.15a81.48,81.48,0,0,0-5.41-19.47,1,1,0,0,0-1.15-.48c-12.34,1.94-23.94,7.06-33.17,15.81-8.73,8.29-14.71,19.22-19.76,30.13-5.29,11.45-9.37,23.63-10.2,36.35-.78,11.87,1.55,24.08,7.91,34.14A48.24,48.24,0,0,0,705.32,339a43.43,43.43,0,0,0,30.77-.09A42.56,42.56,0,0,0,750,330.36c-.25-.22-.49-.45-.73-.68h1.45l-.72.68a43.54,43.54,0,0,0,56.56,1.94,49.49,49.49,0,0,0,15.82-21.57c3.88-10.25,4.25-21.63,2.56-32.39C825.16,279.66,823.19,280.23,823,278.89Z"/><path class="cls-2" d="M728.84,284c.2.51.4,1,.61,1.54.25-.34.49-.69.73-1l-.32-.11Q729.35,284.24,728.84,284Z"/><path class="cls-1" d="M762.7,204.44a92.08,92.08,0,0,0-25.4,0c11.12,26,7.62,57.88-9.31,80.6,0,0,14.27,5.66,22,2.66,7.74,3,22-2.66,22-2.66C755.08,262.32,751.58,230.43,762.7,204.44Z"/><path class="cls-2" d="M771.11,285.57l.63-1.54-1.37.51C770.61,284.88,770.85,285.23,771.11,285.57Z"/><path class="cls-2" d="M762.5,203.36l.36,0A.9.9,0,0,0,762.5,203.36Z"/><path class="cls-2" d="M737.58,205.45l1.2-.17c-.19-.46-.37-.92-.57-1.37Z"/><path class="cls-2" d="M728.26,284l.63,1.54c.26-.34.5-.69.75-1l-.32-.11C729,284.3,728.61,284.17,728.26,284Z"/><path class="cls-2" d="M758.58,222a77.67,77.67,0,0,1,5-17,1.05,1.05,0,0,0,.09-.37,1.15,1.15,0,0,1-1.27.85l-1.2-.17a84.91,84.91,0,0,0,0,62.59,78.67,78.67,0,0,0,9.11,16.67l1.37-.51-.63,1.54c-.26-.34-.5-.69-.74-1-1.82.64-3.67,1.18-5.53,1.65-4.08,1-8.59,1.87-12.78,1-1-.2-1.79-.71-2.77-.37a12.36,12.36,0,0,1-3,.61,27.1,27.1,0,0,1-6.55-.32,56.53,56.53,0,0,1-10.08-2.6c-.25.35-.49.7-.75,1l-.63-1.54c.35.14.71.27,1.06.39l.32.11C742.19,267,747,244.61,743.76,223.38a80,80,0,0,0-5-18.1l-1.2.17.63-1.54c.2.45.38.91.57,1.37a86,86,0,0,1,22.44,0c.19-.46.37-.92.57-1.37a.83.83,0,0,1,.71-.55,88.72,88.72,0,0,0-25.47.07c-.75.11-.87,1-.63,1.54a82.55,82.55,0,0,1-.47,64.21,76.94,76.94,0,0,1-8.85,15.33c-.44.6.06,1.32.63,1.54a56.78,56.78,0,0,0,6.89,2.17,34.33,34.33,0,0,0,12.94,1.18,13.67,13.67,0,0,0,1.42-.27l.67-.19c.16-.05.57-.05.3-.15a13.32,13.32,0,0,0,3.05.68,26.84,26.84,0,0,0,6.52-.12,55.75,55.75,0,0,0,11.11-2.69c.57-.19,1.13-.39,1.68-.61s1.07-.94.63-1.54C759.77,266.78,754.78,243.67,758.58,222Z"/><path class="cls-2" d="M763,203.43l-.11,0a1.21,1.21,0,0,1,.83,1.19A.85.85,0,0,0,763,203.43Z"/><path class="cls-2" d="M762.86,203.41l-.36,0a.83.83,0,0,0-.71.55c-.2.45-.38.91-.57,1.37l1.2.17a1.15,1.15,0,0,0,1.27-.85A1.21,1.21,0,0,0,762.86,203.41Z"/><ellipse class="cls-1" cx="749.97" cy="325.17" rx="44.33" ry="31.72"/><path class="cls-2" d="M784.42,303.82c-7.6-6.41-17.36-9.81-27.13-11A59.88,59.88,0,0,0,726,297.34c-8,3.54-15.42,9.46-19.11,17.53A25,25,0,0,0,708.21,338c4.6,7.86,12.69,13.16,21,16.3a61,61,0,0,0,31.83,2.6c9.45-1.67,18.79-5.75,25.66-12.55,5.16-5.1,8.57-11.9,8.61-19.22a1.05,1.05,0,0,1-2.1,0c0,8.49-5,15.85-11.59,20.87-8.07,6.16-18.3,9.14-28.33,9.71a55.82,55.82,0,0,1-30.43-6.66c-7.37-4.16-13.79-10.74-15.71-19.2-1.85-8.15,1.45-16.24,7.11-22.09,6.76-7,16.28-10.88,25.73-12.5a58.56,58.56,0,0,1,31.75,3.38c8.14,3.32,15.75,9.12,19.47,17.25a22.65,22.65,0,0,1,2,9.24,1.05,1.05,0,0,1,2.1,0C795.31,316.68,790.78,309.17,784.42,303.82Z"/><path class="cls-2" d="M793.26,325.17a1.05,1.05,0,0,0,2.1,0A1.05,1.05,0,0,0,793.26,325.17Z"/><path class="cls-1" d="M750,274.17c-19.61.38-36.27,16.88-46.16,31.5-7.16,10.59-22.65,33.75-8.34,44.49,7.71,5.79,17.21,2.77,24.25-2.51,8.09-6.06,15.41-15.79,25.87-18.54,13.12-3.46,25.46,11.68,34.62,18.54,7,5.28,16.54,8.3,24.25,2.51,14.31-10.74-1.18-33.9-8.34-44.49C786.29,291.05,769.63,274.55,750,274.17Z"/><path class="cls-2" d="M797.08,305.14c.77,1.12-1.05,2.17-1.81,1.06,4.72,7,9.41,14.19,12.21,22.19,1.34,3.86,2.29,8.09,1.67,12.19a13.64,13.64,0,0,1-6.92,9.83c-4.9,2.85-10.82,2-15.76-.23-4.47-2.06-8.14-5.36-11.79-8.58-6.92-6.1-14.91-13.7-24.69-14-5-.18-9.81,2.19-13.83,4.91-4.35,2.94-8.12,6.65-12,10.16s-8.21,6.95-13.38,8.65-11,1.13-15.32-2.52c-6.87-5.78-4.93-15.33-2-22.65,3.13-7.88,8-15.18,12.85-22.07,6.1-8.56,13.61-16.43,22.57-22a45.76,45.76,0,0,1,14.55-6,32.56,32.56,0,0,1,15.69.6c7.73,2.12,14.66,6.58,20.66,11.81a92.48,92.48,0,0,1,15.52,17.81c-.76-1.13,1.06-2.18,1.81-1.06a90.08,90.08,0,0,0-21.35-22.62c-8.43-6.09-19-10.4-29.5-9.13s-20,7-27.89,13.94c-7.22,6.4-13,14.08-18.25,22.12-4.74,7.29-9.43,15.27-11,23.93a19.93,19.93,0,0,0,1,11.73,16.25,16.25,0,0,0,10.3,8.62c5.2,1.54,10.77.09,15.46-2.33s8.52-6.1,12.36-9.61,7.82-7.11,12.49-9.6c4.39-2.34,9-3.19,13.82-1.76s8.82,4.38,12.57,7.4,7.18,6.33,10.9,9.35c4,3.29,8.69,6,13.89,6.89a17.24,17.24,0,0,0,14.61-4.16c6.5-5.85,5.5-15.12,2.85-22.58C806.48,319.34,801.81,312.12,797.08,305.14Z"/><path class="cls-2" d="M795.27,306.2c.76,1.11,2.58.06,1.81-1.06S794.51,305.07,795.27,306.2Z"/><ellipse class="cls-1" cx="787.91" cy="269.85" rx="13.66" ry="13.86"/><ellipse class="cls-2" cx="787.67" cy="270.62" rx="9.71" ry="9.85"/><path class="cls-1" d="M792.12,261.29a3.44,3.44,0,1,0,3.39,3.44A3.41,3.41,0,0,0,792.12,261.29Z"/><ellipse class="cls-1" cx="712.09" cy="269.85" rx="13.66" ry="13.86"/><ellipse class="cls-2" cx="712.6" cy="270.62" rx="9.71" ry="9.85"/><path class="cls-1" d="M717.05,261.29a3.44,3.44,0,1,0,3.39,3.44A3.41,3.41,0,0,0,717.05,261.29Z"/><path class="cls-2" d="M749,305.33v22.52a1.05,1.05,0,0,0,2.1,0V305.33A1.05,1.05,0,0,0,749,305.33Z"/><path class="cls-2" d="M720.7,198.63A180.23,180.23,0,0,0,705,165.55a128.18,128.18,0,0,0-10.2-14.47,33.39,33.39,0,0,0-5.18-5.57,17,17,0,0,0-6.13-3A12.38,12.38,0,0,0,671.09,146c-4.38,4.76-6.17,10.9-6.17,17.28a36.42,36.42,0,0,0,1.4,9.57,18.55,18.55,0,0,1,.64,2.29c.12.81.26,1.62.4,2.42.31,1.81.65,3.62,1,5.43.64,3.51,1.31,6.87.47,10.41-.78,3.28-2.42,6.32-3.75,9.4a66.53,66.53,0,0,0-3.24,9,44,44,0,0,0-1.37,9.35,21.5,21.5,0,0,0,1.26,9,49.7,49.7,0,0,0,2.37,5.07,55.33,55.33,0,0,0,7.66,11.09c2.87,3.2,6.35,6.07,10.47,7.42A13.55,13.55,0,0,0,693.7,252c3.24-2.05,5.41-5.33,7-8.74,1.76-3.78,2.93-7.8,4.44-11.68,1.39-3.58,3.21-7.31,6.37-9.67,2.24-1.61,4.68-2.06,7.28-2.76a7.79,7.79,0,0,0,5.11-3.55c1.44-2.72.41-5.94-.42-8.66S721.69,201.39,720.7,198.63Z"/><path class="cls-2" d="M831.76,195.31a18.93,18.93,0,0,1-1-4.82,23.31,23.31,0,0,1,.56-5.45c.58-3.45,1.29-6.87,1.8-10.33a22.8,22.8,0,0,1,.69-2.27c.21-.76.39-1.53.55-2.3a37.58,37.58,0,0,0,.67-4.94c.46-6.36-1-12.89-5-17.94a13.76,13.76,0,0,0-5.64-4.43,12.77,12.77,0,0,0-6.54-.6,16,16,0,0,0-6.31,2.47,24.91,24.91,0,0,0-5.15,5A114,114,0,0,0,796,164a177.55,177.55,0,0,0-16,32.94q-1.6,4.32-3,8.71c-.93,2.93-2.17,6.16-1.15,9.23.75,2.24,2.78,3.45,4.92,4.15,1.16.37,2.36.57,3.54.87a13,13,0,0,1,4.25,2c3,2.22,4.74,5.66,6.11,9,1.51,3.72,2.65,7.58,4.22,11.27a21.89,21.89,0,0,0,6.56,9.16A13.76,13.76,0,0,0,816.64,254c4.17-.89,7.76-3.74,10.67-6.72a52.53,52.53,0,0,0,8-11,55.34,55.34,0,0,0,2.56-5.18,21.29,21.29,0,0,0,1.7-8.07,46.38,46.38,0,0,0-3.93-18.56C834.39,201.4,832.85,198.44,831.76,195.31Z"/><path class="cls-1" d="M707.54,199.34A77.13,77.13,0,0,0,697,178.08c-2.9-4.31-5.95-8.64-9.25-12.66-1.2-1.46-3.53-4.12-5.62-2.58-1,.74-1.42,2.55-1.51,3.69-.26,3.75,1.07,6.92,1.92,10.5a43.62,43.62,0,0,1,1.21,10.44,40,40,0,0,1-1.46,10.43c-.94,3.37-2.56,6.25-4,9.41-.56,1.24-1.16,2.44-1.77,3.63-3.09,5.9-6.6,11.33-5.87,19,.35,3.64,6.12,18.76,11.48,18.83a3.68,3.68,0,0,0,2.93-1.72,44.38,44.38,0,0,0,4.2-7.87,70.62,70.62,0,0,1,5.22-9.92A33.06,33.06,0,0,1,697,226c3.59-4,11.56-6.52,12.25-8.8a19.74,19.74,0,0,0,.6-4.74,36.9,36.9,0,0,0-.54-4.85A78.16,78.16,0,0,0,707.54,199.34Z"/><path class="cls-1" d="M820.12,207.31c-1.41-3.16-3-6-4-9.41a40,40,0,0,1-1.46-10.43A44.14,44.14,0,0,1,815.9,177c.85-3.58,2.19-6.75,1.92-10.5-.08-1.14-.5-2.95-1.51-3.69-2.09-1.54-4.41,1.12-5.62,2.58-3.3,4-6.35,8.35-9.25,12.66a77.13,77.13,0,0,0-10.52,21.26,78.16,78.16,0,0,0-1.72,8.29,36.9,36.9,0,0,0-.54,4.85,19.74,19.74,0,0,0,.6,4.74c.69,2.28,8.67,4.8,12.26,8.8a34.66,34.66,0,0,1,2.4,3.2,70.62,70.62,0,0,1,5.22,9.92,44.38,44.38,0,0,0,4.2,7.87,3.68,3.68,0,0,0,2.93,1.72c5.37-.07,11.14-15.19,11.48-18.83.73-7.63-2.78-13.06-5.86-19C821.27,209.75,820.67,208.55,820.12,207.31Z"/><path class="cls-2" d="M760.71,282.37a39.57,39.57,0,0,0-21.37,0c-3.43,1-7.19,2.55-8.84,5.8a6.53,6.53,0,0,0,.51,7,5.3,5.3,0,0,0,6.83,1.13,26.16,26.16,0,0,0,2.08-2,3,3,0,0,1,2.66-.88c1.34.36,1.82,2,1.64,3.31-.5,3.61-4.67,6.31-8.33,5.39,3,5.11,8.51,6.6,14.14,6.51,5.62.09,11.17-1.4,14.13-6.51-3.66.92-7.83-1.78-8.33-5.39-.18-1.32.3-2.95,1.64-3.31a3,3,0,0,1,2.66.88,26.16,26.16,0,0,0,2.08,2,5.3,5.3,0,0,0,6.83-1.13,6.53,6.53,0,0,0,.51-7C767.9,284.92,764.14,283.35,760.71,282.37Z"/><path class="cls-2" d="M714,321.26a1.92,1.92,0,1,0,1.92,1.91A1.91,1.91,0,0,0,714,321.26Z"/><circle class="cls-2" cx="708.56" cy="337.73" r="1.92"/><path class="cls-2" d="M722.75,329.75a1.92,1.92,0,1,0,1.92,1.92A1.92,1.92,0,0,0,722.75,329.75Z"/><path class="cls-2" d="M728.64,316.46a1.92,1.92,0,1,0,1.92,1.91A1.91,1.91,0,0,0,728.64,316.46Z"/><path class="cls-2" d="M786,321.26a1.92,1.92,0,1,0,1.91,1.91A1.92,1.92,0,0,0,786,321.26Z"/><circle class="cls-2" cx="791.44" cy="337.73" r="1.92"/><path class="cls-2" d="M777.25,329.75a1.92,1.92,0,1,0,1.92,1.92A1.92,1.92,0,0,0,777.25,329.75Z"/><path class="cls-2" d="M771.36,316.46a1.92,1.92,0,1,0,1.92,1.91A1.91,1.91,0,0,0,771.36,316.46Z"/><path class="cls-2" d="M313.05,246.44c-4.6-9.44-10-18.64-17.43-25.94a56.42,56.42,0,0,0-10.55-8.13,58.76,58.76,0,0,0-15.52-6.46c-2.43-.62-4.81-1.11-7.18-1.47-10.82,26-7.41,57.88,9.08,80.6,0,0-13.91,5.66-21.44,2.66-7.54,3-21.45-2.66-21.45-2.66,16.5-22.72,19.91-54.61,9.08-80.6q-3.54.54-7.17,1.47A58.48,58.48,0,0,0,215,212.37a56.49,56.49,0,0,0-10.56,8.13C197,227.8,191.56,237,187,246.44c-5,10.2-9.12,20.93-10.92,32.18s-1.13,23.09,3.24,33.57c5.6,13.4,17.44,24,31.24,27.38A42.75,42.75,0,0,0,250,328.94a42.73,42.73,0,0,0,39.48,10.63c13.8-3.41,25.64-14,31.23-27.38,4.37-10.48,5-22.32,3.24-33.57S318,256.64,313.05,246.44Z"/><path class="cls-2" d="M323,278.89c.21,1.34,2.18.77,2-.55S322.77,277.57,323,278.89Z"/><path class="cls-2" d="M237,205.6l.9-.15-1.15-.48C236.85,205.18,236.93,205.39,237,205.6Z"/><path class="cls-2" d="M263,205.6l.26-.63-1.16.48Z"/><path class="cls-2" d="M270.57,285.57c.2-.51.4-1,.61-1.54-.44.18-.89.34-1.34.51C270.08,284.88,270.32,285.23,270.57,285.57Z"/><path class="cls-2" d="M250,330.36l.72-.68h-1.45C249.52,329.91,249.76,330.14,250,330.36Z"/><path class="cls-2" d="M323,278.89c1.91,12.17.92,25.11-4.72,36.15a46.73,46.73,0,0,1-21.83,21,41.63,41.63,0,0,1-45.7-7.85,1,1,0,0,0-1.45,0,41.78,41.78,0,0,1-29,11.51,42.51,42.51,0,0,1-28.18-11.24,48.66,48.66,0,0,1-15.23-28.77c-2-12.63.32-25.56,4.5-37.47A151.31,151.31,0,0,1,189,244.7a110.29,110.29,0,0,1,9.29-15.51,58.25,58.25,0,0,1,29.6-21.45A68.26,68.26,0,0,1,237,205.6c-.08-.21-.16-.42-.25-.63l1.15.48-.9.15a84.67,84.67,0,0,1-.7,63.58,78,78,0,0,1-8.63,15.33,1.07,1.07,0,0,0,.61,1.54,54.8,54.8,0,0,0,6.72,2.17,32.59,32.59,0,0,0,12.6,1.18,12.47,12.47,0,0,0,1.38-.27l.66-.19c.15-.05.55-.05.29-.15a12.67,12.67,0,0,0,3,.68,25.46,25.46,0,0,0,6.35-.12,53.2,53.2,0,0,0,10.82-2.69c.55-.19,1.1-.39,1.64-.61a1.07,1.07,0,0,0,.61-1.54c-12.81-17.73-17.67-40.84-14-62.51A79.5,79.5,0,0,1,263,205.6l-.9-.15,1.16-.48-.26.63c12.15,2.08,23.51,7.25,32.41,16.15,8.57,8.57,14.41,19.71,19.34,30.77A107.13,107.13,0,0,1,323,278.89c-.21-1.32,1.76-1.89,2-.55-2-12.56-6.91-24.45-12.64-35.67-5.5-10.79-12.4-20.92-22.1-28.13a62,62,0,0,0-27.57-11.11,1,1,0,0,0-1.15.48,86.91,86.91,0,0,0-.52,64,80,80,0,0,0,8.87,16.67c.45-.17.9-.33,1.34-.51-.21.51-.41,1-.61,1.54-.25-.34-.49-.69-.73-1-1.76.64-3.57,1.18-5.38,1.65-4,1-8.36,1.87-12.44,1-1-.2-1.75-.71-2.7-.37a11.93,11.93,0,0,1-2.94.61,25.8,25.8,0,0,1-6.39-.32,53.74,53.74,0,0,1-9.81-2.6c-.24.35-.48.7-.73,1-.21-.51-.41-1-.61-1.54q.51.21,1,.39l.32.11c12.22-17.52,16.87-39.92,13.75-61.15a81.48,81.48,0,0,0-5.41-19.47,1,1,0,0,0-1.15-.48c-12.34,1.94-23.94,7.06-33.17,15.81-8.73,8.29-14.71,19.22-19.76,30.13-5.29,11.45-9.37,23.63-10.2,36.35-.78,11.87,1.55,24.08,7.91,34.14A48.24,48.24,0,0,0,205.32,339a43.43,43.43,0,0,0,30.77-.09A42.56,42.56,0,0,0,250,330.36c-.25-.22-.49-.45-.73-.68h1.45l-.72.68a43.54,43.54,0,0,0,56.56,1.94,49.49,49.49,0,0,0,15.82-21.57c3.88-10.25,4.25-21.63,2.56-32.39C325.16,279.66,323.19,280.23,323,278.89Z"/><path class="cls-2" d="M228.84,284c.2.51.4,1,.61,1.54.25-.34.49-.69.73-1l-.32-.11Q229.35,284.24,228.84,284Z"/><path class="cls-1" d="M262.7,204.44a92.08,92.08,0,0,0-25.4,0c11.12,26,7.62,57.88-9.31,80.6,0,0,14.27,5.66,22,2.66,7.74,3,22-2.66,22-2.66C255.08,262.32,251.58,230.43,262.7,204.44Z"/><path class="cls-2" d="M271.11,285.57l.63-1.54-1.37.51C270.61,284.88,270.85,285.23,271.11,285.57Z"/><path class="cls-2" d="M262.5,203.36l.36,0A.9.9,0,0,0,262.5,203.36Z"/><path class="cls-2" d="M237.58,205.45l1.2-.17c-.19-.46-.37-.92-.57-1.37Z"/><path class="cls-2" d="M228.26,284l.63,1.54c.26-.34.5-.69.75-1l-.32-.11C229,284.3,228.61,284.17,228.26,284Z"/><path class="cls-2" d="M258.58,222a77.67,77.67,0,0,1,5-17,1.05,1.05,0,0,0,.09-.37,1.15,1.15,0,0,1-1.27.85l-1.2-.17a84.91,84.91,0,0,0,0,62.59,78.67,78.67,0,0,0,9.11,16.67l1.37-.51-.63,1.54c-.26-.34-.5-.69-.74-1-1.82.64-3.67,1.18-5.53,1.65-4.08,1-8.59,1.87-12.78,1-1-.2-1.79-.71-2.77-.37a12.36,12.36,0,0,1-3,.61,27.1,27.1,0,0,1-6.55-.32,56.53,56.53,0,0,1-10.08-2.6c-.25.35-.49.7-.75,1l-.63-1.54c.35.14.71.27,1.06.39l.32.11C242.19,267,247,244.61,243.76,223.38a80,80,0,0,0-5-18.1l-1.2.17.63-1.54c.2.45.38.91.57,1.37a86,86,0,0,1,22.44,0c.19-.46.37-.92.57-1.37a.83.83,0,0,1,.71-.55,88.72,88.72,0,0,0-25.47.07c-.75.11-.87,1-.63,1.54a82.55,82.55,0,0,1-.47,64.21,76.94,76.94,0,0,1-8.85,15.33c-.44.6.06,1.32.63,1.54a56.78,56.78,0,0,0,6.89,2.17,34.33,34.33,0,0,0,12.94,1.18,13.67,13.67,0,0,0,1.42-.27l.67-.19c.16-.05.57-.05.3-.15a13.32,13.32,0,0,0,3,.68,26.84,26.84,0,0,0,6.52-.12,55.75,55.75,0,0,0,11.11-2.69c.57-.19,1.13-.39,1.68-.61s1.07-.94.63-1.54C259.77,266.78,254.78,243.67,258.58,222Z"/><path class="cls-2" d="M263,203.43l-.11,0a1.21,1.21,0,0,1,.83,1.19A.85.85,0,0,0,263,203.43Z"/><path class="cls-2" d="M262.86,203.41l-.36,0a.83.83,0,0,0-.71.55c-.2.45-.38.91-.57,1.37l1.2.17a1.15,1.15,0,0,0,1.27-.85A1.21,1.21,0,0,0,262.86,203.41Z"/><ellipse class="cls-1" cx="249.97" cy="325.17" rx="44.33" ry="31.72"/><path class="cls-2" d="M284.42,303.82c-7.6-6.41-17.36-9.81-27.13-11A59.88,59.88,0,0,0,226,297.34c-8,3.54-15.42,9.46-19.11,17.53A25,25,0,0,0,208.21,338c4.6,7.86,12.69,13.16,21,16.3a61,61,0,0,0,31.83,2.6c9.45-1.67,18.79-5.75,25.66-12.55,5.16-5.1,8.57-11.9,8.61-19.22a1.05,1.05,0,0,1-2.1,0c-.05,8.49-5,15.85-11.59,20.87-8.07,6.16-18.3,9.14-28.33,9.71a55.82,55.82,0,0,1-30.43-6.66c-7.37-4.16-13.79-10.74-15.71-19.2-1.85-8.15,1.45-16.24,7.11-22.09,6.76-7,16.28-10.88,25.73-12.5a58.56,58.56,0,0,1,31.75,3.38c8.14,3.32,15.75,9.12,19.47,17.25a22.65,22.65,0,0,1,2,9.24,1.05,1.05,0,0,1,2.1,0C295.31,316.68,290.78,309.17,284.42,303.82Z"/><path class="cls-2" d="M293.26,325.17a1.05,1.05,0,0,0,2.1,0A1.05,1.05,0,0,0,293.26,325.17Z"/><path class="cls-1" d="M250,274.17c-19.61.38-36.27,16.88-46.16,31.5-7.16,10.59-22.65,33.75-8.34,44.49,7.71,5.79,17.21,2.77,24.25-2.51,8.09-6.06,15.41-15.79,25.87-18.54,13.12-3.46,25.46,11.68,34.62,18.54,7,5.28,16.54,8.3,24.25,2.51,14.31-10.74-1.18-33.9-8.34-44.49C286.29,291.05,269.63,274.55,250,274.17Z"/><path class="cls-2" d="M297.08,305.14c.77,1.12-1.05,2.17-1.81,1.06,4.72,7,9.41,14.19,12.21,22.19,1.34,3.86,2.29,8.09,1.67,12.19a13.64,13.64,0,0,1-6.92,9.83c-4.9,2.85-10.82,2-15.76-.23-4.47-2.06-8.14-5.36-11.79-8.58-6.92-6.1-14.91-13.7-24.69-14-5-.18-9.81,2.19-13.83,4.91-4.35,2.94-8.12,6.65-12,10.16s-8.21,6.95-13.38,8.65-11,1.13-15.32-2.52c-6.87-5.78-4.93-15.33-2-22.65,3.13-7.88,7.95-15.18,12.85-22.07,6.1-8.56,13.61-16.43,22.57-22a45.76,45.76,0,0,1,14.55-6,32.56,32.56,0,0,1,15.69.6c7.73,2.12,14.66,6.58,20.66,11.81a92.48,92.48,0,0,1,15.52,17.81c-.76-1.13,1.06-2.18,1.81-1.06a90.08,90.08,0,0,0-21.35-22.62c-8.43-6.09-19-10.4-29.5-9.13s-20,7-27.89,13.94c-7.22,6.4-13,14.08-18.25,22.12-4.74,7.29-9.43,15.27-11,23.93a19.93,19.93,0,0,0,1,11.73,16.25,16.25,0,0,0,10.3,8.62c5.2,1.54,10.77.09,15.46-2.33s8.52-6.1,12.36-9.61,7.82-7.11,12.49-9.6c4.39-2.34,9-3.19,13.82-1.76s8.82,4.38,12.57,7.4,7.18,6.33,10.9,9.35c4,3.29,8.69,6,13.89,6.89a17.24,17.24,0,0,0,14.61-4.16c6.5-5.85,5.5-15.12,2.85-22.58C306.48,319.34,301.81,312.12,297.08,305.14Z"/><path class="cls-2" d="M295.27,306.2c.76,1.11,2.58.06,1.81-1.06S294.51,305.07,295.27,306.2Z"/><ellipse class="cls-1" cx="287.91" cy="269.85" rx="13.66" ry="13.86"/><ellipse class="cls-2" cx="287.67" cy="270.62" rx="9.71" ry="9.85"/><path class="cls-1" d="M292.12,261.29a3.44,3.44,0,1,0,3.39,3.44A3.41,3.41,0,0,0,292.12,261.29Z"/><ellipse class="cls-1" cx="212.09" cy="269.85" rx="13.66" ry="13.86"/><ellipse class="cls-2" cx="212.6" cy="270.62" rx="9.71" ry="9.85"/><path class="cls-1" d="M217.05,261.29a3.44,3.44,0,1,0,3.39,3.44A3.41,3.41,0,0,0,217.05,261.29Z"/><path class="cls-2" d="M249,305.33v22.52a1.05,1.05,0,0,0,2.1,0V305.33A1.05,1.05,0,0,0,249,305.33Z"/><path class="cls-2" d="M220.7,198.63A180.23,180.23,0,0,0,205,165.55a128.18,128.18,0,0,0-10.2-14.47,33.39,33.39,0,0,0-5.18-5.57,17,17,0,0,0-6.13-3A12.38,12.38,0,0,0,171.09,146c-4.38,4.76-6.17,10.9-6.17,17.28a36.42,36.42,0,0,0,1.4,9.57,18.55,18.55,0,0,1,.64,2.29c.12.81.26,1.62.4,2.42.31,1.81.65,3.62,1,5.43.64,3.51,1.31,6.87.47,10.41-.78,3.28-2.42,6.32-3.75,9.4a66.53,66.53,0,0,0-3.24,9,44,44,0,0,0-1.37,9.35,21.34,21.34,0,0,0,1.26,9,49.7,49.7,0,0,0,2.37,5.07,55.33,55.33,0,0,0,7.66,11.09c2.87,3.2,6.35,6.07,10.47,7.42A13.55,13.55,0,0,0,193.7,252c3.24-2.05,5.41-5.33,7-8.74,1.76-3.78,2.93-7.8,4.44-11.68,1.39-3.58,3.21-7.31,6.37-9.67,2.24-1.61,4.68-2.06,7.28-2.76a7.79,7.79,0,0,0,5.11-3.55c1.44-2.72.41-5.94-.42-8.66S221.69,201.39,220.7,198.63Z"/><path class="cls-2" d="M331.76,195.31a18.93,18.93,0,0,1-1-4.82,23.31,23.31,0,0,1,.56-5.45c.58-3.45,1.29-6.87,1.8-10.33a22.8,22.8,0,0,1,.69-2.27c.21-.76.39-1.53.55-2.3a37.58,37.58,0,0,0,.67-4.94c.46-6.36-1-12.89-5-17.94a13.76,13.76,0,0,0-5.64-4.43,12.77,12.77,0,0,0-6.54-.6,16,16,0,0,0-6.31,2.47,24.91,24.91,0,0,0-5.15,5A114,114,0,0,0,296,164a177.55,177.55,0,0,0-16,32.94q-1.6,4.32-3,8.71c-.93,2.93-2.17,6.16-1.15,9.23.75,2.24,2.78,3.45,4.92,4.15,1.16.37,2.36.57,3.54.87a13,13,0,0,1,4.25,2c3,2.22,4.74,5.66,6.11,9,1.51,3.72,2.65,7.58,4.22,11.27a21.89,21.89,0,0,0,6.56,9.16A13.76,13.76,0,0,0,316.64,254c4.17-.89,7.76-3.74,10.67-6.72a52.53,52.53,0,0,0,8-11,55.34,55.34,0,0,0,2.56-5.18,21.29,21.29,0,0,0,1.7-8.07,46.38,46.38,0,0,0-3.93-18.56C334.39,201.4,332.85,198.44,331.76,195.31Z"/><path class="cls-1" d="M207.54,199.34A77.13,77.13,0,0,0,197,178.08c-2.9-4.31-6-8.64-9.25-12.66-1.2-1.46-3.53-4.12-5.62-2.58-1,.74-1.42,2.55-1.51,3.69-.26,3.75,1.07,6.92,1.92,10.5a43.62,43.62,0,0,1,1.21,10.44,40,40,0,0,1-1.46,10.43c-.94,3.37-2.56,6.25-4,9.41-.56,1.24-1.16,2.44-1.77,3.63-3.09,5.9-6.6,11.33-5.87,19,.35,3.64,6.12,18.76,11.48,18.83a3.68,3.68,0,0,0,2.93-1.72,44.38,44.38,0,0,0,4.2-7.87,70.62,70.62,0,0,1,5.22-9.92A33.06,33.06,0,0,1,197,226c3.59-4,11.56-6.52,12.25-8.8a19.74,19.74,0,0,0,.6-4.74,36.9,36.9,0,0,0-.54-4.85A78.16,78.16,0,0,0,207.54,199.34Z"/><path class="cls-1" d="M320.12,207.31c-1.41-3.16-3-6-4-9.41a40,40,0,0,1-1.46-10.43A44.14,44.14,0,0,1,315.9,177c.85-3.58,2.19-6.75,1.92-10.5-.08-1.14-.5-2.95-1.51-3.69-2.09-1.54-4.41,1.12-5.62,2.58-3.3,4-6.35,8.35-9.25,12.66a77.13,77.13,0,0,0-10.52,21.26,78.16,78.16,0,0,0-1.72,8.29,36.9,36.9,0,0,0-.54,4.85,19.74,19.74,0,0,0,.6,4.74c.69,2.28,8.67,4.8,12.26,8.8a34.66,34.66,0,0,1,2.4,3.2,70.62,70.62,0,0,1,5.22,9.92,44.38,44.38,0,0,0,4.2,7.87,3.68,3.68,0,0,0,2.93,1.72c5.37-.07,11.14-15.19,11.48-18.83.73-7.63-2.78-13.06-5.86-19C321.27,209.75,320.67,208.55,320.12,207.31Z"/><path class="cls-2" d="M260.71,282.37a39.57,39.57,0,0,0-21.37,0c-3.43,1-7.19,2.55-8.84,5.8a6.53,6.53,0,0,0,.51,7,5.3,5.3,0,0,0,6.83,1.13,26.16,26.16,0,0,0,2.08-2,3,3,0,0,1,2.66-.88c1.34.36,1.82,2,1.64,3.31-.5,3.61-4.67,6.31-8.33,5.39,3,5.11,8.51,6.6,14.14,6.51,5.62.09,11.17-1.4,14.13-6.51-3.66.92-7.83-1.78-8.33-5.39-.18-1.32.3-2.95,1.64-3.31a3,3,0,0,1,2.66.88,26.16,26.16,0,0,0,2.08,2,5.3,5.3,0,0,0,6.83-1.13,6.53,6.53,0,0,0,.51-7C267.9,284.92,264.14,283.35,260.71,282.37Z"/><path class="cls-2" d="M214,321.26a1.92,1.92,0,1,0,1.92,1.91A1.91,1.91,0,0,0,214,321.26Z"/><circle class="cls-2" cx="208.56" cy="337.73" r="1.92"/><path class="cls-2" d="M222.75,329.75a1.92,1.92,0,1,0,1.92,1.92A1.92,1.92,0,0,0,222.75,329.75Z"/><path class="cls-2" d="M228.64,316.46a1.92,1.92,0,1,0,1.92,1.91A1.91,1.91,0,0,0,228.64,316.46Z"/><path class="cls-2" d="M286,321.26a1.92,1.92,0,1,0,1.91,1.91A1.92,1.92,0,0,0,286,321.26Z"/><circle class="cls-2" cx="291.44" cy="337.73" r="1.92"/><path class="cls-2" d="M277.25,329.75a1.92,1.92,0,1,0,1.92,1.92A1.92,1.92,0,0,0,277.25,329.75Z"/><path class="cls-2" d="M271.36,316.46a1.92,1.92,0,1,0,1.92,1.91A1.91,1.91,0,0,0,271.36,316.46Z"/><path class="cls-2" d="M978.56,35A81.29,81.29,0,0,0,992.79,0H935.28c-4.2,9.13-7.64,18.67-9.23,28.62-1.8,11.25-1.13,23.09,3.24,33.57,5.6,13.4,17.44,24,31.24,27.38A42.72,42.72,0,0,0,1000,79V37.7C992.46,40.69,978.56,35,978.56,35Z"/><path class="cls-2" d="M999.28,79.68l.72.68v-.68Z"/><path class="cls-2" d="M986.31,19.18a78,78,0,0,1-8.63,15.33,1.07,1.07,0,0,0,.61,1.54A54.8,54.8,0,0,0,985,38.22a32.57,32.57,0,0,0,12.6,1.18,12.47,12.47,0,0,0,1.38-.27l.66-.19c.09,0,.28,0,.35-.07v0l-.06,0,.06,0V36.73a1.65,1.65,0,0,0-.68.11,11.93,11.93,0,0,1-2.94.61,25.8,25.8,0,0,1-6.39-.32,53.74,53.74,0,0,1-9.81-2.6c-.24.35-.48.7-.73,1-.21-.51-.41-1-.61-1.54q.51.21,1,.39l.32.11A82.64,82.64,0,0,0,993.79,0h-2A83.76,83.76,0,0,1,986.31,19.18Z"/><path class="cls-2" d="M999.28,79.68h.72V77.9a1,1,0,0,0-.72.3,41.78,41.78,0,0,1-29,11.51A42.51,42.51,0,0,1,942.1,78.47,48.66,48.66,0,0,1,926.87,49.7c-2-12.63.32-25.56,4.5-37.47,1.47-4.16,3.19-8.23,5-12.23h-2.26c-5.16,11.26-9.11,23.23-9.92,35.72-.78,11.87,1.55,24.08,7.91,34.14A48.24,48.24,0,0,0,955.32,89a43.43,43.43,0,0,0,30.77-.09A42.55,42.55,0,0,0,1000,80.37h0Z"/><path class="cls-2" d="M978.84,34c.2.51.4,1,.61,1.54.25-.34.49-.69.73-1l-.32-.11Q979.35,34.24,978.84,34Z"/><path class="cls-1" d="M992.59,0A80.18,80.18,0,0,1,978,35s14.27,5.66,22,2.66V0Z"/><path class="cls-2" d="M978.26,34l.63,1.54c.26-.34.5-.69.75-1l-.32-.11C979,34.3,978.61,34.17,978.26,34Z"/><path class="cls-2" d="M999.29,36.84a12.36,12.36,0,0,1-3,.61,27.1,27.1,0,0,1-6.55-.32,56.53,56.53,0,0,1-10.08-2.6c-.25.35-.49.7-.75,1L978.26,34c.35.14.71.27,1.06.39l.32.11A81.29,81.29,0,0,0,993.62,0h-2.09a81.65,81.65,0,0,1-5.6,19.18,76.94,76.94,0,0,1-8.85,15.33c-.44.6.06,1.32.63,1.54a56.78,56.78,0,0,0,6.89,2.17,34.33,34.33,0,0,0,12.94,1.18,13.67,13.67,0,0,0,1.42-.27l.67-.19c.1,0,.31,0,.37-.08v0l-.07,0,.07,0V36.72A2,2,0,0,0,999.29,36.84Z"/><path class="cls-1" d="M1000,43.45c-24.48,0-44.33,14.2-44.33,31.72s19.85,31.72,44.33,31.72h0V43.45Z"/><path class="cls-2" d="M972.91,99.09c-7.37-4.16-13.79-10.74-15.71-19.2-1.85-8.15,1.45-16.24,7.11-22.09,6.76-7,16.28-10.88,25.73-12.5a59.25,59.25,0,0,1,10-.84V42.39a59.16,59.16,0,0,0-24,5c-8,3.54-15.42,9.46-19.11,17.53A25,25,0,0,0,958.21,88c4.6,7.86,12.69,13.16,21,16.3a58.54,58.54,0,0,0,20.74,3.59v-2.09A55,55,0,0,1,972.91,99.09Z"/><path class="cls-1" d="M953.87,55.67c-7.16,10.59-22.65,33.75-8.34,44.49,7.71,5.79,17.21,2.77,24.25-2.51,8.09-6.06,15.41-15.79,25.87-18.54a15.11,15.11,0,0,1,4.35-.49V24.17C980.4,24.57,963.75,41.06,953.87,55.67Z"/><path class="cls-2" d="M1000,77.56c-5-.18-9.81,2.19-13.83,4.91-4.35,2.94-8.12,6.65-12,10.16s-8.21,7-13.38,8.65-11,1.13-15.32-2.52c-6.87-5.78-4.93-15.33-2-22.65,3.13-7.88,8-15.18,12.85-22.07,6.1-8.56,13.61-16.43,22.57-22a45.76,45.76,0,0,1,14.55-6,31,31,0,0,1,6.6-.68V23.17a31.9,31.9,0,0,0-3.77.22c-10.59,1.29-20,7-27.89,13.94-7.22,6.4-13,14.08-18.25,22.12-4.74,7.29-9.43,15.27-11,23.93a19.93,19.93,0,0,0,1,11.73,16.25,16.25,0,0,0,10.3,8.62c5.2,1.54,10.77.09,15.46-2.33s8.52-6.1,12.36-9.61,7.82-7.11,12.49-9.6a19.08,19.08,0,0,1,9.32-2.43v-2.2Z"/><ellipse class="cls-1" cx="962.09" cy="19.85" rx="13.66" ry="13.86"/><ellipse class="cls-2" cx="962.6" cy="20.62" rx="9.71" ry="9.85"/><path class="cls-1" d="M967.05,11.29a3.44,3.44,0,1,0,3.39,3.44A3.41,3.41,0,0,0,967.05,11.29Z"/><path class="cls-2" d="M999,55.33V77.85a1,1,0,0,0,1,1V54.31A1,1,0,0,0,999,55.33Z"/><path class="cls-2" d="M943.7,2a14.48,14.48,0,0,0,2.51-2H925.65a21.08,21.08,0,0,0,6.56,3.69A13.55,13.55,0,0,0,943.7,2Z"/><path class="cls-2" d="M989.34,32.37c-3.43,1-7.19,2.55-8.84,5.8a6.53,6.53,0,0,0,.51,7,5.3,5.3,0,0,0,6.83,1.13,26.16,26.16,0,0,0,2.08-2,3,3,0,0,1,2.66-.88c1.34.36,1.82,2,1.64,3.31-.5,3.61-4.67,6.31-8.33,5.39,3,5.1,8.49,6.59,14.11,6.51V30.91A39.29,39.29,0,0,0,989.34,32.37Z"/><path class="cls-2" d="M964,71.26a1.92,1.92,0,1,0,1.92,1.91A1.91,1.91,0,0,0,964,71.26Z"/><circle class="cls-2" cx="958.56" cy="87.73" r="1.92"/><path class="cls-2" d="M972.75,79.75a1.92,1.92,0,1,0,1.92,1.92A1.92,1.92,0,0,0,972.75,79.75Z"/><path class="cls-2" d="M978.64,66.46a1.92,1.92,0,1,0,1.92,1.91A1.91,1.91,0,0,0,978.64,66.46Z"/><path class="cls-2" d="M429.29,62.19c5.6,13.4,17.44,24,31.24,27.38A42.75,42.75,0,0,0,500,78.94a42.73,42.73,0,0,0,39.48,10.63c13.8-3.41,25.64-14,31.23-27.38,4.37-10.48,5-22.32,3.24-33.57-1.59-9.95-5-19.49-9.23-28.62H507.22a81.29,81.29,0,0,0,14.23,35S507.54,40.7,500,37.7c-7.54,3-21.45-2.66-21.45-2.66A81.29,81.29,0,0,0,492.79,0H435.28c-4.2,9.13-7.64,18.67-9.23,28.62C424.25,39.87,424.92,51.71,429.29,62.19Z"/><path class="cls-2" d="M573,28.89c.21,1.34,2.18.77,2-.55S572.77,27.57,573,28.89Z"/><path class="cls-2" d="M520.57,35.57c.2-.51.4-1,.61-1.54-.44.18-.89.34-1.34.51C520.08,34.88,520.32,35.23,520.57,35.57Z"/><path class="cls-2" d="M500,80.36l.72-.68h-1.45C499.52,79.91,499.76,80.14,500,80.36Z"/><path class="cls-2" d="M486.31,19.18a78,78,0,0,1-8.63,15.33,1.07,1.07,0,0,0,.61,1.54A54.8,54.8,0,0,0,485,38.22a32.59,32.59,0,0,0,12.6,1.18,12.47,12.47,0,0,0,1.38-.27l.66-.19c.15,0,.55,0,.29-.15a12.67,12.67,0,0,0,3,.68,25.46,25.46,0,0,0,6.35-.12,53.2,53.2,0,0,0,10.82-2.69c.55-.19,1.1-.39,1.64-.61a1.07,1.07,0,0,0,.61-1.54A81,81,0,0,1,508.27,0h-2.06A86.32,86.32,0,0,0,511,17.87a80,80,0,0,0,8.87,16.67c.45-.17.9-.33,1.34-.51-.21.51-.41,1-.61,1.54-.25-.34-.49-.69-.73-1-1.76.64-3.57,1.18-5.38,1.65-4,1-8.36,1.87-12.44,1-.95-.2-1.75-.71-2.7-.37a11.93,11.93,0,0,1-2.94.61,25.8,25.8,0,0,1-6.39-.32,53.74,53.74,0,0,1-9.81-2.6c-.24.35-.48.7-.73,1-.21-.51-.41-1-.61-1.54q.51.21,1,.39l.32.11A82.64,82.64,0,0,0,493.79,0h-2A83.76,83.76,0,0,1,486.31,19.18Z"/><path class="cls-2" d="M564.75,2.52A107.13,107.13,0,0,1,573,28.89c-.21-1.32,1.76-1.89,2-.55A111.37,111.37,0,0,0,565.87,0h-2.26C564,.84,564.38,1.68,564.75,2.52Z"/><path class="cls-2" d="M432.15,69.86A48.24,48.24,0,0,0,455.32,89a43.43,43.43,0,0,0,30.77-.09A42.56,42.56,0,0,0,500,80.36c-.25-.22-.49-.45-.73-.68h1.45l-.72.68a43.54,43.54,0,0,0,56.56,1.94,49.49,49.49,0,0,0,15.82-21.57c3.88-10.25,4.25-21.63,2.56-32.39.21,1.32-1.76,1.89-2,.55,1.91,12.17.92,25.11-4.72,36.15a46.73,46.73,0,0,1-21.83,21,41.63,41.63,0,0,1-45.7-7.85,1,1,0,0,0-1.45,0,41.78,41.78,0,0,1-29,11.51A42.51,42.51,0,0,1,442.1,78.47,48.66,48.66,0,0,1,426.87,49.7c-2-12.63.32-25.56,4.5-37.47C432.84,8.07,434.56,4,436.42,0h-2.26c-5.16,11.26-9.11,23.23-9.92,35.72C423.46,47.59,425.79,59.8,432.15,69.86Z"/><path class="cls-2" d="M478.84,34c.2.51.4,1,.61,1.54.25-.34.49-.69.73-1l-.32-.11Q479.35,34.24,478.84,34Z"/><path class="cls-1" d="M500,37.7c7.74,3,22-2.66,22-2.66a80.18,80.18,0,0,1-14.6-35H492.59A80.18,80.18,0,0,1,478,35S492.26,40.7,500,37.7Z"/><path class="cls-2" d="M521.11,35.57l.63-1.54-1.37.51C520.61,34.88,520.85,35.23,521.11,35.57Z"/><path class="cls-2" d="M478.26,34l.63,1.54c.26-.34.5-.69.75-1l-.32-.11C479,34.3,478.61,34.17,478.26,34Z"/><path class="cls-2" d="M477.08,34.51c-.44.6.06,1.32.63,1.54a56.78,56.78,0,0,0,6.89,2.17,34.33,34.33,0,0,0,12.94,1.18,13.67,13.67,0,0,0,1.42-.27l.67-.19c.16,0,.57,0,.3-.15a13.32,13.32,0,0,0,3.05.68,26.84,26.84,0,0,0,6.52-.12,55.75,55.75,0,0,0,11.11-2.69c.57-.19,1.13-.39,1.68-.61s1.07-.94.63-1.54A79.86,79.86,0,0,1,508.48,0h-2.11a83.62,83.62,0,0,0,4.89,17.87,78.67,78.67,0,0,0,9.11,16.67l1.37-.51-.63,1.54c-.26-.34-.5-.69-.74-1-1.82.64-3.67,1.18-5.53,1.65-4.08,1-8.59,1.87-12.78,1-1-.2-1.79-.71-2.77-.37a12.36,12.36,0,0,1-3,.61,27.1,27.1,0,0,1-6.55-.32,56.53,56.53,0,0,1-10.08-2.6c-.25.35-.49.7-.75,1L478.26,34c.35.14.71.27,1.06.39l.32.11A81.29,81.29,0,0,0,493.62,0h-2.09a81.65,81.65,0,0,1-5.6,19.18A76.94,76.94,0,0,1,477.08,34.51Z"/><ellipse class="cls-1" cx="499.97" cy="75.17" rx="44.33" ry="31.72"/><path class="cls-2" d="M534.42,53.82c-7.6-6.41-17.36-9.81-27.13-11A59.88,59.88,0,0,0,476,47.34c-8,3.54-15.42,9.46-19.11,17.53A25,25,0,0,0,458.21,88c4.6,7.86,12.69,13.16,21.05,16.3a61,61,0,0,0,31.83,2.6c9.45-1.67,18.79-5.75,25.66-12.55,5.16-5.1,8.57-11.9,8.61-19.22a1.05,1.05,0,0,1-2.1,0c0,8.49-5,15.85-11.59,20.87-8.07,6.16-18.3,9.14-28.33,9.71a55.82,55.82,0,0,1-30.43-6.66c-7.37-4.16-13.79-10.74-15.71-19.2-1.85-8.15,1.45-16.24,7.11-22.09,6.76-7,16.28-10.88,25.73-12.5a58.56,58.56,0,0,1,31.75,3.38c8.14,3.32,15.75,9.12,19.47,17.25a22.65,22.65,0,0,1,2,9.24,1.05,1.05,0,0,1,2.1,0C545.31,66.68,540.78,59.17,534.42,53.82Z"/><path class="cls-2" d="M543.26,75.17a1.05,1.05,0,0,0,2.1,0A1.05,1.05,0,0,0,543.26,75.17Z"/><path class="cls-1" d="M500,24.17c-19.61.38-36.27,16.88-46.16,31.5-7.16,10.59-22.65,33.75-8.34,44.49,7.71,5.79,17.21,2.77,24.25-2.51,8.09-6.06,15.41-15.79,25.87-18.54,13.12-3.46,25.46,11.68,34.62,18.54,7,5.28,16.54,8.3,24.25,2.51,14.31-10.74-1.18-33.9-8.34-44.49C536.29,41.05,519.63,24.55,500,24.17Z"/><path class="cls-2" d="M547.08,55.14c.77,1.12-1.05,2.17-1.81,1.06,4.72,7,9.41,14.19,12.21,22.19,1.34,3.86,2.29,8.09,1.67,12.19a13.64,13.64,0,0,1-6.92,9.83c-4.9,2.85-10.82,2-15.76-.23-4.47-2.06-8.14-5.36-11.79-8.58-6.92-6.1-14.91-13.7-24.69-14-5-.18-9.81,2.19-13.83,4.91-4.35,2.94-8.12,6.65-12,10.16s-8.21,7-13.38,8.65-11,1.13-15.32-2.52c-6.87-5.78-4.93-15.33-2-22.65,3.13-7.88,7.95-15.18,12.85-22.07,6.1-8.56,13.61-16.43,22.57-22a45.76,45.76,0,0,1,14.55-6,32.56,32.56,0,0,1,15.69.6c7.73,2.12,14.66,6.58,20.66,11.81A92.48,92.48,0,0,1,545.27,56.2c-.76-1.13,1.06-2.18,1.81-1.06a90.08,90.08,0,0,0-21.35-22.62c-8.43-6.09-19-10.4-29.5-9.13s-20,7-27.89,13.94c-7.22,6.4-13,14.08-18.25,22.12-4.74,7.29-9.43,15.27-11,23.93a19.93,19.93,0,0,0,1,11.73,16.25,16.25,0,0,0,10.3,8.62c5.2,1.54,10.77.09,15.46-2.33s8.52-6.1,12.36-9.61,7.82-7.11,12.49-9.6c4.39-2.34,9-3.19,13.82-1.76s8.82,4.38,12.57,7.4,7.18,6.33,10.9,9.35c4,3.29,8.69,6,13.89,6.89a17.24,17.24,0,0,0,14.61-4.16c6.5-5.85,5.5-15.12,2.85-22.58C556.48,69.34,551.81,62.12,547.08,55.14Z"/><path class="cls-2" d="M545.27,56.2c.76,1.11,2.58.06,1.81-1.06S544.51,55.07,545.27,56.2Z"/><ellipse class="cls-1" cx="537.91" cy="19.85" rx="13.66" ry="13.86"/><ellipse class="cls-2" cx="537.67" cy="20.62" rx="9.71" ry="9.85"/><path class="cls-1" d="M542.12,11.29a3.44,3.44,0,1,0,3.39,3.44A3.41,3.41,0,0,0,542.12,11.29Z"/><ellipse class="cls-1" cx="462.09" cy="19.85" rx="13.66" ry="13.86"/><ellipse class="cls-2" cx="462.6" cy="20.62" rx="9.71" ry="9.85"/><path class="cls-1" d="M467.05,11.29a3.44,3.44,0,1,0,3.39,3.44A3.41,3.41,0,0,0,467.05,11.29Z"/><path class="cls-2" d="M499,55.33V77.85a1.05,1.05,0,0,0,2.1,0V55.33A1.05,1.05,0,0,0,499,55.33Z"/><path class="cls-2" d="M443.7,2a14.48,14.48,0,0,0,2.51-2H425.65a21.08,21.08,0,0,0,6.56,3.69A13.55,13.55,0,0,0,443.7,2Z"/><path class="cls-2" d="M566.64,4a18.49,18.49,0,0,0,7.7-4H553.81a13.84,13.84,0,0,0,1.57,1.38A13.76,13.76,0,0,0,566.64,4Z"/><path class="cls-2" d="M510.71,32.37a39.57,39.57,0,0,0-21.37,0c-3.43,1-7.19,2.55-8.84,5.8a6.53,6.53,0,0,0,.51,7,5.3,5.3,0,0,0,6.83,1.13,26.16,26.16,0,0,0,2.08-2,3,3,0,0,1,2.66-.88c1.34.36,1.82,2,1.64,3.31-.5,3.61-4.67,6.31-8.33,5.39,3,5.11,8.51,6.6,14.14,6.51,5.62.09,11.17-1.4,14.13-6.51-3.66.92-7.83-1.78-8.33-5.39-.18-1.32.3-3,1.64-3.31a3,3,0,0,1,2.66.88,26.16,26.16,0,0,0,2.08,2A5.3,5.3,0,0,0,519,45.15a6.53,6.53,0,0,0,.51-7C517.9,34.92,514.14,33.35,510.71,32.37Z"/><path class="cls-2" d="M464,71.26a1.92,1.92,0,1,0,1.92,1.91A1.91,1.91,0,0,0,464,71.26Z"/><circle class="cls-2" cx="458.56" cy="87.73" r="1.92"/><path class="cls-2" d="M472.75,79.75a1.92,1.92,0,1,0,1.92,1.92A1.92,1.92,0,0,0,472.75,79.75Z"/><path class="cls-2" d="M478.64,66.46a1.92,1.92,0,1,0,1.92,1.91A1.91,1.91,0,0,0,478.64,66.46Z"/><path class="cls-2" d="M536,71.26a1.92,1.92,0,1,0,1.91,1.91A1.92,1.92,0,0,0,536,71.26Z"/><circle class="cls-2" cx="541.44" cy="87.73" r="1.92"/><path class="cls-2" d="M527.25,79.75a1.92,1.92,0,1,0,1.92,1.92A1.92,1.92,0,0,0,527.25,79.75Z"/><path class="cls-2" d="M521.36,66.46a1.92,1.92,0,1,0,1.92,1.91A1.91,1.91,0,0,0,521.36,66.46Z"/><path class="cls-2" d="M39.49,89.57c13.8-3.41,25.64-14,31.23-27.38,4.37-10.48,5-22.32,3.24-33.57-1.59-9.95-5-19.49-9.23-28.62H7.22A81.29,81.29,0,0,0,21.45,35S7.54,40.7,0,37.7H0V79H0A42.73,42.73,0,0,0,39.49,89.57Z"/><path class="cls-2" d="M73,28.89c.21,1.34,2.18.77,2-.55S72.77,27.57,73,28.89Z"/><path class="cls-2" d="M20.57,35.57c.2-.51.4-1,.61-1.54-.44.18-.89.34-1.34.51C20.08,34.88,20.32,35.23,20.57,35.57Z"/><path class="cls-2" d="M.73,79.68H0v.68H0Z"/><path class="cls-2" d="M2.91,39.47a25.46,25.46,0,0,0,6.35-.12,53.2,53.2,0,0,0,10.82-2.69c.55-.19,1.1-.39,1.64-.61a1.07,1.07,0,0,0,.61-1.54A81,81,0,0,1,8.27,0H6.21A86.32,86.32,0,0,0,11,17.87a80,80,0,0,0,8.87,16.67c.45-.17.9-.33,1.34-.51-.21.51-.41,1-.61,1.54-.25-.34-.49-.69-.73-1-1.76.64-3.57,1.18-5.38,1.65-4,1-8.36,1.87-12.44,1a10.71,10.71,0,0,0-2-.48v2.08A12.65,12.65,0,0,0,2.91,39.47Z"/><path class="cls-2" d="M73,28.89C74.89,41.06,73.9,54,68.26,65a46.73,46.73,0,0,1-21.83,21A41.63,41.63,0,0,1,.73,78.2,1,1,0,0,0,0,77.9v1.78H.73L0,80.36A43.54,43.54,0,0,0,56.57,82.3,49.49,49.49,0,0,0,72.39,60.73C76.27,50.48,76.64,39.1,75,28.34,75.16,29.66,73.19,30.23,73,28.89Z"/><polygon class="cls-2" points="0 80.36 0 80.37 0.01 80.36 0 80.36"/><path class="cls-2" d="M0,38.82v0S0,38.84,0,38.82Z"/><path class="cls-2" d="M64.75,2.52A107.13,107.13,0,0,1,73,28.89c-.21-1.32,1.76-1.89,2-.55A111.37,111.37,0,0,0,65.87,0H63.61C64,.84,64.38,1.68,64.75,2.52Z"/><path class="cls-1" d="M22,35A80.18,80.18,0,0,1,7.41,0H0V37.7C7.74,40.7,22,35,22,35Z"/><path class="cls-2" d="M21.11,35.57,21.74,34l-1.37.51C20.61,34.88,20.85,35.23,21.11,35.57Z"/><path class="cls-2" d="M0,38.82v0S0,38.84,0,38.82Z"/><path class="cls-2" d="M11.26,17.87a78.67,78.67,0,0,0,9.11,16.67L21.74,34l-.63,1.54c-.26-.34-.5-.69-.74-1-1.82.64-3.67,1.18-5.53,1.65-4.08,1-8.59,1.87-12.78,1A11.79,11.79,0,0,0,0,36.72v2.09a13.24,13.24,0,0,0,3,.66,26.84,26.84,0,0,0,6.52-.12,55.75,55.75,0,0,0,11.11-2.69c.57-.19,1.13-.39,1.68-.61s1.07-.94.63-1.54A79.86,79.86,0,0,1,8.48,0H6.37A83.62,83.62,0,0,0,11.26,17.87Z"/><path class="cls-1" d="M44.31,75.17C44.31,57.65,24.47,43.46,0,43.45v63.44C24.47,106.87,44.31,92.68,44.31,75.17Z"/><path class="cls-2" d="M21.79,48.68C29.93,52,37.54,57.8,41.26,65.93a22.65,22.65,0,0,1,2,9.24,1.05,1.05,0,0,1,2.1,0c0-8.49-4.58-16-10.94-21.35-7.6-6.41-17.36-9.81-27.13-11A59.07,59.07,0,0,0,0,42.39v2.07A57.93,57.93,0,0,1,21.79,48.68Z"/><path class="cls-2" d="M36.75,94.39c5.16-5.1,8.57-11.9,8.61-19.22a1.05,1.05,0,0,1-2.1,0c0,8.49-5,15.85-11.59,20.87-8.07,6.16-18.3,9.14-28.33,9.71-1.11.06-2.22.08-3.34.09v2.09a64.14,64.14,0,0,0,11.09-1C20.54,105.27,29.88,101.19,36.75,94.39Z"/><path class="cls-2" d="M43.26,75.17a1.05,1.05,0,0,0,2.1,0A1.05,1.05,0,0,0,43.26,75.17Z"/><path class="cls-1" d="M54.52,100.16c14.31-10.74-1.18-33.9-8.34-44.49C36.29,41.05,19.63,24.55,0,24.17H0V78.62c11.48.31,22.13,12.94,30.27,19C37.31,102.93,46.81,106,54.52,100.16Z"/><path class="cls-2" d="M17.07,87.83c3.73,3,7.18,6.33,10.9,9.35,4.05,3.29,8.69,6,13.89,6.89a17.24,17.24,0,0,0,14.61-4.16C63,94.06,62,84.79,59.32,77.33c-2.84-8-7.51-15.21-12.24-22.19.77,1.12-1,2.17-1.81,1.06,4.72,7,9.41,14.19,12.21,22.19,1.34,3.86,2.29,8.09,1.67,12.19a13.64,13.64,0,0,1-6.92,9.83c-4.9,2.85-10.82,2-15.76-.23C32,98.12,28.33,94.82,24.68,91.6,17.76,85.5,9.78,77.91,0,77.56v2.2a16.52,16.52,0,0,1,4.5.67C9.18,81.81,13.32,84.81,17.07,87.83Z"/><path class="cls-2" d="M9.09,26.58c7.73,2.12,14.66,6.58,20.66,11.81A92.48,92.48,0,0,1,45.27,56.2c-.76-1.13,1.06-2.18,1.81-1.06A90.08,90.08,0,0,0,25.73,32.52C18.3,27.16,9.26,23.18,0,23.17V25.3A34.57,34.57,0,0,1,9.09,26.58Z"/><path class="cls-2" d="M45.27,56.2c.76,1.11,2.58.06,1.81-1.06S44.51,55.07,45.27,56.2Z"/><ellipse class="cls-1" cx="37.91" cy="19.85" rx="13.66" ry="13.86"/><ellipse class="cls-2" cx="37.67" cy="20.62" rx="9.71" ry="9.85"/><path class="cls-1" d="M42.12,11.29a3.44,3.44,0,1,0,3.39,3.44A3.41,3.41,0,0,0,42.12,11.29Z"/><path class="cls-2" d="M1.05,77.85V55.33a1,1,0,0,0-1-1V78.87A1,1,0,0,0,1.05,77.85Z"/><path class="cls-2" d="M66.64,4a18.49,18.49,0,0,0,7.7-4H53.81a13.84,13.84,0,0,0,1.57,1.38A13.76,13.76,0,0,0,66.64,4Z"/><path class="cls-2" d="M14.16,52.1c-3.66.92-7.83-1.78-8.33-5.39-.18-1.32.3-3,1.64-3.31a3,3,0,0,1,2.66.88,26.16,26.16,0,0,0,2.08,2A5.3,5.3,0,0,0,19,45.15a6.53,6.53,0,0,0,.51-7c-1.65-3.25-5.41-4.82-8.84-5.8A39.89,39.89,0,0,0,0,30.9H0v27.7H0C5.65,58.7,11.2,57.21,14.16,52.1Z"/><path class="cls-2" d="M36,71.26a1.92,1.92,0,1,0,1.91,1.91A1.92,1.92,0,0,0,36,71.26Z"/><circle class="cls-2" cx="41.44" cy="87.73" r="1.92"/><path class="cls-2" d="M27.25,79.75a1.92,1.92,0,1,0,1.92,1.92A1.92,1.92,0,0,0,27.25,79.75Z"/><path class="cls-2" d="M21.36,66.46a1.92,1.92,0,1,0,1.92,1.91A1.91,1.91,0,0,0,21.36,66.46Z"/></svg>